<svg xmlns="http://www.w3.org/2000/svg" viewBox="0 0 500 500"><g id="freepik--Floor--inject-211"><path id="freepik--SUELO--inject-211" d="M111.37,446c80.06,38.16,209.86,38.16,289.92,0s80-100,0-138.18-209.85-38.15-289.91,0S31.31,407.82,111.37,446Z" style="fill:#f5f5f5"></path></g><g id="freepik--Shadows--inject-211"><ellipse id="freepik--Shadow--inject-211" cx="379.49" cy="354.91" rx="60.48" ry="28.82" style="fill:#e6e6e6"></ellipse><path id="freepik--shadow--inject-211" d="M273.06,316.61c-13.26,7-34.76,7-48,0s-13.26-18.3,0-25.28,34.76-7,48,0S286.32,309.63,273.06,316.61Z" style="fill:#e6e6e6"></path><path id="freepik--shadow--inject-211" d="M199.94,358.82c-13.26,7-34.76,7-48,0s-13.26-18.29,0-25.28,34.76-7,48,0S213.2,351.84,199.94,358.82Z" style="fill:#e6e6e6"></path><path id="freepik--shadow--inject-211" d="M126.83,401c-13.27,7-34.76,7-48,0s-13.26-18.3,0-25.28,34.76-7,48,0S140.09,394.06,126.83,401Z" style="fill:#e6e6e6"></path></g><g id="freepik--Plants--inject-211"><g id="freepik--Pot--inject-211"><path d="M133.82,340.26h-62l6.42,44h0c.49,3.22,2.86,6.37,7.13,8.83,9.65,5.57,25.28,5.57,34.93,0,4.59-2.65,7-6.09,7.19-9.57Z" style="fill:#37474f"></path><path d="M127.19,346.68c-13.46,7.77-35.29,7.77-48.75,0A24.71,24.71,0,0,1,72,341.51l1.57,10.76a23.91,23.91,0,0,0,6,4.78c12.83,7.4,33.62,7.4,46.45,0a23.85,23.85,0,0,0,6-4.8l1.57-10.72A25,25,0,0,1,127.19,346.68Z" style="fill:#263238"></path><path d="M78.22,384.31h0c.49,3.22,2.86,6.36,7.13,8.82,6.9,4,16.84,5.1,25.48,3.4-15.5,1.18-26.13-5.59-27.72-11.83s-3.63-36.84-3.63-36.84l1.71-6.92-.48-.68H71.8Z" style="fill:#263238"></path><path d="M137,332.36a13,13,0,0,1-2.07,4.82,22.9,22.9,0,0,1-7.78,6.91c-13.46,7.77-35.29,7.77-48.75,0a22.9,22.9,0,0,1-7.78-6.91,13.15,13.15,0,0,1-2.06-4.82h0c-1.2-5.84,2.09-11.93,9.85-16.41,13.46-7.78,35.29-7.78,48.75,0C135,320.43,138.24,326.52,137,332.36Z" style="fill:#455a64"></path><path d="M135,337.18a22.9,22.9,0,0,1-7.78,6.91c-13.46,7.77-35.29,7.77-48.75,0a22.9,22.9,0,0,1-7.78-6.91,13.15,13.15,0,0,1-2.06-4.82h0l1.53,10.51c.7,4.23,3.85,8.35,9.47,11.59,12.83,7.4,33.62,7.4,46.45,0,5.54-3.2,8.69-7.27,9.44-11.44l.08-.54L137,332.36A13,13,0,0,1,135,337.18Z" style="fill:#37474f"></path><path d="M123.13,318.29c-11.22-6.48-29.41-6.48-40.62,0-6.35,3.67-9.1,8.62-8.27,13.4.64,3.67,3.4,7.24,8.27,10.05,11.21,6.48,29.4,6.48,40.62,0,4.86-2.81,7.62-6.38,8.26-10C132.23,326.91,129.48,322,123.13,318.29Z" style="fill:#37474f"></path><path d="M76.14,336.13a19.23,19.23,0,0,0,6.37,5.61c11.21,6.48,29.4,6.48,40.62,0a19.23,19.23,0,0,0,6.37-5.61c-.09-3.88-2.68-7.74-7.81-10.7-10.42-6-27.33-6-37.74,0C78.82,328.39,76.22,332.25,76.14,336.13Z" style="fill:#e0e0e0"></path></g><g id="freepik--Flower--inject-211"><path d="M101.12,305.47s.06-7.25-5-11.18-11.48-4.4-12.87-3.18-1.37,10.73,3.2,15.1S99.55,309.77,101.12,305.47Z" style="fill:#FF9F00"></path><path d="M101.12,305.46C95,296,83.27,291.11,83.27,291.11c1.39-1.22,7.74-.82,12.87,3.18C101.06,298.12,101.12,305.11,101.12,305.46Z" style="opacity:0.1"></path><path d="M106.62,314.35c-.88-10.85-3.57-17.39-4.56-17.39s.6,7.44-.94,17.22c-1,6.35-3,12.69-3.49,15.31a1.61,1.61,0,0,0-.11.89,2.44,2.44,0,0,0,1.32,1.6,7.18,7.18,0,0,0,6.45,0,2.46,2.46,0,0,0,1.31-1.6,1.7,1.7,0,0,0,0-.39A93.9,93.9,0,0,0,106.62,314.35Z" style="fill:#FF9F00"></path><path d="M106.62,314.35c-.88-10.85-3.57-17.39-4.56-17.39s.6,7.44-.94,17.22c-1,6.35-3,12.69-3.49,15.31a1.61,1.61,0,0,0-.11.89,2.44,2.44,0,0,0,1.32,1.6,7.18,7.18,0,0,0,6.45,0,2.46,2.46,0,0,0,1.31-1.6,1.7,1.7,0,0,0,0-.39A93.9,93.9,0,0,0,106.62,314.35Z" style="opacity:0.1"></path></g><g id="freepik--Facebook--inject-211"><path d="M101,286.3l-4-7.51,3.22-9.27v-5.68l-9.84,5.68v5.67l4.23,7.33a.63.63,0,0,0,.29.25h0Z" style="fill:#263238"></path><path d="M117.5,233.7a6.52,6.52,0,0,0-3-5.11l-2.4-1.38a6.46,6.46,0,0,0-5.9,0L80.67,242a6.5,6.5,0,0,0-3,5.1v29.56a6.52,6.52,0,0,0,3,5.11l2.4,1.38a6.52,6.52,0,0,0,5.9,0l7.55-4.36,4.22,7.31a.63.63,0,0,0,1.14-.11l4.46-12.87,8.21-4.74a6.52,6.52,0,0,0,3-5.11Z" style="fill:#37474f"></path><path d="M77.72,276.64a6.52,6.52,0,0,0,3,5.11l2.4,1.38a6.57,6.57,0,0,0,5.39.24c-1.39.52-2.44-.26-2.44-1.94V251.87a6,6,0,0,1,.86-2.9l-8.3-4.79a6,6,0,0,0-.86,2.9Z" style="fill:#263238"></path><path d="M117.4,232.86c-.34-1.25-1.48-1.65-2.85-.87L89,246.77a5.87,5.87,0,0,0-2.07,2.2l-8.3-4.79a6.05,6.05,0,0,1,2.08-2.2l25.58-14.77a6.52,6.52,0,0,1,5.9,0l2.4,1.39A6.48,6.48,0,0,1,117.4,232.86Z" style="fill:#455a64"></path><path d="M99.52,272.07l3.8-2.19V257.19l2.65-1.53.28-4.41-2.93,1.69v-2.42c0-1,.15-1.48.87-1.9l2.06-1.19V243l-2.63,1.52a7.71,7.71,0,0,0-4.1,7.21v3.39l-2,1.14v4.3l2-1.14Z" style="fill:#fff"></path></g><g id="freepik--pot--inject-211"><path d="M206.93,298.05h-62l6.41,44h0c.49,3.22,2.86,6.36,7.13,8.83,9.64,5.57,25.28,5.57,34.92,0,4.6-2.65,7-6.09,7.19-9.57Z" style="fill:#37474f"></path><path d="M200.31,304.47c-13.46,7.77-35.29,7.77-48.75,0a25.13,25.13,0,0,1-6.45-5.17l1.56,10.76a24.15,24.15,0,0,0,6,4.78c12.83,7.4,33.62,7.4,46.45,0a23.85,23.85,0,0,0,6-4.81l1.58-10.72A25,25,0,0,1,200.31,304.47Z" style="fill:#263238"></path><path d="M151.33,342.09h0c.49,3.22,2.86,6.37,7.13,8.83,6.89,4,16.84,5.1,25.47,3.39-15.49,1.18-26.12-5.59-27.72-11.83s-3.62-36.84-3.62-36.84l1.71-6.92-.48-.67h-8.91Z" style="fill:#263238"></path><path d="M210.16,290.15a13,13,0,0,1-2.07,4.82,22.9,22.9,0,0,1-7.78,6.91c-13.46,7.77-35.29,7.77-48.75,0a22.9,22.9,0,0,1-7.78-6.91,13.15,13.15,0,0,1-2.06-4.82h0c-1.2-5.84,2.09-11.93,9.85-16.41,13.46-7.78,35.29-7.78,48.75,0C208.07,278.22,211.36,284.31,210.16,290.15Z" style="fill:#455a64"></path><path d="M208.09,295a22.9,22.9,0,0,1-7.78,6.91c-13.46,7.77-35.29,7.77-48.75,0a22.9,22.9,0,0,1-7.78-6.91,13.15,13.15,0,0,1-2.06-4.82h0l1.53,10.51c.7,4.23,3.85,8.35,9.47,11.59,12.83,7.4,33.62,7.4,46.45,0,5.54-3.2,8.69-7.27,9.44-11.44l.08-.54,1.48-10.12A13,13,0,0,1,208.09,295Z" style="fill:#37474f"></path><path d="M196.25,276.08c-11.22-6.48-29.41-6.48-40.62,0-6.35,3.67-9.1,8.62-8.27,13.4.64,3.67,3.4,7.24,8.27,10,11.21,6.48,29.4,6.48,40.62,0,4.86-2.81,7.62-6.38,8.26-10C205.35,284.7,202.6,279.75,196.25,276.08Z" style="fill:#37474f"></path><path d="M149.25,293.92a19.37,19.37,0,0,0,6.38,5.61c11.21,6.48,29.4,6.48,40.62,0a19.4,19.4,0,0,0,6.36-5.61c-.08-3.88-2.68-7.74-7.8-10.71-10.43-6-27.33-6-37.74,0C151.94,286.18,149.34,290,149.25,293.92Z" style="fill:#e0e0e0"></path></g><g id="freepik--flower--inject-211"><path d="M179.75,287.82h0c-3.39-11.62-1.68-23.4-1.68-31.6,0-7.42-1.56-16.82-2.59-16.72s0,7.2-1.09,16.89c-.45,3.9-4,20.86-2.82,32h0a2.2,2.2,0,0,0,1.18,1.45,6.46,6.46,0,0,0,5.84,0,2.23,2.23,0,0,0,1.18-1.45A1.22,1.22,0,0,0,179.75,287.82Z" style="fill:#FF9F00"></path><path d="M179.75,287.82h0c-3.39-11.62-1.68-23.4-1.68-31.6,0-7.42-1.56-16.82-2.59-16.72s0,7.2-1.09,16.89c-.45,3.9-4,20.86-2.82,32h0a2.2,2.2,0,0,0,1.18,1.45,6.46,6.46,0,0,0,5.84,0,2.23,2.23,0,0,0,1.18-1.45A1.22,1.22,0,0,0,179.75,287.82Z" style="opacity:0.1"></path><path d="M178.47,265.06a12.41,12.41,0,0,1,6-10.45c6.83-4.18,15.32,1.41,15.68,2.4s-1.22,5.3-4.48,7.53S185.47,270,178.47,265.06Z" style="fill:#FF9F00"></path><path d="M200.15,257a19.62,19.62,0,0,0-21.68,8.05,12.44,12.44,0,0,1,6-10.46C191.3,250.42,199.79,256,200.15,257Z" style="opacity:0.1"></path><path d="M172.75,262.23a13.53,13.53,0,0,0-10.43-8.66c-8.15-1.38-13.56,3.66-13.59,5.26s.76,2,3.8,4.39,7.39,5.61,12.52,4.87A9.89,9.89,0,0,0,172.75,262.23Z" style="fill:#FF9F00"></path><path d="M172.75,262.23a13.53,13.53,0,0,0-10.43-8.66c-8.15-1.38-13.56,3.66-13.59,5.26C152.16,256.66,165.55,254.16,172.75,262.23Z" style="opacity:0.15"></path><path d="M172.75,262.23c-7.2-8.07-20.59-5.57-24-3.39,0-1.61,5.45-6.65,13.6-5.27A13.53,13.53,0,0,1,172.75,262.23Z" style="fill:#FF9F00"></path><path d="M172.75,262.23c-7.2-8.07-20.59-5.57-24-3.39,0-1.61,5.45-6.65,13.6-5.27A13.53,13.53,0,0,1,172.75,262.23Z" style="opacity:0.1"></path><g id="freepik--Instagram--inject-211"><path d="M175,233.55l-4.67-8.79,3.76-10.87v-6.65l-11.52,6.65v6.65l4.95,8.58a.81.81,0,0,0,.34.3h0Z" style="fill:#263238"></path><path d="M194.37,171.93a7.65,7.65,0,0,0-3.45-6l-2.82-1.62a7.56,7.56,0,0,0-6.9,0l-30,17.3a7.63,7.63,0,0,0-3.46,6v34.62a7.65,7.65,0,0,0,3.46,6l2.81,1.62a7.65,7.65,0,0,0,6.91,0l8.84-5.11,5,8.56a.73.73,0,0,0,1.33-.13l5.22-15.07,9.63-5.56a7.63,7.63,0,0,0,3.45-6Z" style="fill:#37474f"></path><path d="M147.77,222.23a7.65,7.65,0,0,0,3.46,6l2.81,1.62a7.76,7.76,0,0,0,6.32.28c-1.63.61-2.87-.31-2.87-2.28V193.22a7.09,7.09,0,0,1,1-3.4l-9.71-5.61a7,7,0,0,0-1,3.4Z" style="fill:#263238"></path><path d="M194.26,171c-.41-1.47-1.74-1.93-3.34-1l-30,17.31a6.89,6.89,0,0,0-2.43,2.58l-9.71-5.6a6.89,6.89,0,0,1,2.43-2.58l30-17.31a7.65,7.65,0,0,1,6.91,0l2.82,1.62A7.63,7.63,0,0,1,194.26,171Z" style="fill:#455a64"></path><path d="M176.28,188.71c2.73-1.57,3.06-1.75,4.13-2.3a4.55,4.55,0,0,1,1.9-.63,1.62,1.62,0,0,1,1.18.34,2.15,2.15,0,0,1,.76,1.13,7.33,7.33,0,0,1,.35,2.33c.05,1.41.06,1.83.06,5.47s0,4.08-.06,5.54a12.15,12.15,0,0,1-.35,2.74,8.15,8.15,0,0,1-.76,2,7.78,7.78,0,0,1-1.18,1.7,8.82,8.82,0,0,1-1.9,1.56c-1.07.69-1.4.89-4.13,2.47s-3.05,1.75-4.13,2.3a4.55,4.55,0,0,1-1.9.63,1.62,1.62,0,0,1-1.18-.34,2.27,2.27,0,0,1-.76-1.13,7.31,7.31,0,0,1-.35-2.32c-.05-1.41-.06-1.84-.06-5.48s0-4.08.06-5.54a12.15,12.15,0,0,1,.35-2.74,9.23,9.23,0,0,1,.76-2,7.78,7.78,0,0,1,1.18-1.7,8.82,8.82,0,0,1,1.9-1.56c1.08-.69,1.4-.89,4.13-2.47m0-2.45c-2.78,1.6-3.12,1.82-4.21,2.51a11.81,11.81,0,0,0-4.3,4.69,13.28,13.28,0,0,0-1.18,3.09,16.85,16.85,0,0,0-.47,3.59c-.05,1.48-.06,2-.06,5.65s0,4.16.06,5.59a10.2,10.2,0,0,0,.47,3,3.47,3.47,0,0,0,1.18,1.73,2.56,2.56,0,0,0,1.81.53,6.22,6.22,0,0,0,2.49-.8c1.09-.57,1.43-.75,4.21-2.35s3.13-1.83,4.22-2.52a12,12,0,0,0,2.48-2.07,11.8,11.8,0,0,0,1.81-2.62,13.28,13.28,0,0,0,1.18-3.09,16.79,16.79,0,0,0,.48-3.59c0-1.48.06-1.95.06-5.65s0-4.16-.06-5.59a10,10,0,0,0-.48-3,3.46,3.46,0,0,0-1.18-1.74,2.56,2.56,0,0,0-1.81-.52,6,6,0,0,0-2.48.79c-1.09.57-1.44.75-4.22,2.36" style="fill:#fff"></path><path d="M176.28,192.89c-2.9,1.67-5.25,6.17-5.25,10s2.35,5.65,5.25,4,5.25-6.16,5.25-10-2.35-5.64-5.25-4m0,11.55c-1.88,1.08-3.41-.07-3.41-2.58a8.16,8.16,0,0,1,3.41-6.51c1.88-1.09,3.41.06,3.41,2.57a8.19,8.19,0,0,1-3.41,6.52" style="fill:#fff"></path><path d="M183,188.75a2.93,2.93,0,0,1-1.23,2.35c-.68.39-1.23,0-1.23-.93a2.93,2.93,0,0,1,1.23-2.34c.68-.4,1.23,0,1.23.92" style="fill:#fff"></path></g></g><g id="freepik--pot--inject-211"><path d="M280.05,255.83H218l6.41,44.05h0c.49,3.22,2.86,6.36,7.13,8.82,9.64,5.57,25.28,5.57,34.92,0,4.6-2.65,7-6.09,7.19-9.56Z" style="fill:#37474f"></path><path d="M273.42,262.26c-13.46,7.77-35.29,7.77-48.75,0a25.13,25.13,0,0,1-6.45-5.17l1.57,10.75a23.93,23.93,0,0,0,6,4.79c12.83,7.4,33.62,7.4,46.45,0a23.91,23.91,0,0,0,6-4.81l1.57-10.72A25,25,0,0,1,273.42,262.26Z" style="fill:#263238"></path><path d="M224.45,299.88h0c.49,3.22,2.86,6.36,7.13,8.83,6.89,4,16.83,5.1,25.47,3.39-15.49,1.18-26.13-5.59-27.72-11.83s-3.63-36.84-3.63-36.84l1.72-6.92-.49-.67H218Z" style="fill:#263238"></path><path d="M283.27,247.93a13,13,0,0,1-2.07,4.82,22.9,22.9,0,0,1-7.78,6.91c-13.46,7.77-35.29,7.77-48.75,0a22.9,22.9,0,0,1-7.78-6.91,13.15,13.15,0,0,1-2.06-4.82h0c-1.2-5.84,2.09-11.93,9.85-16.41,13.46-7.78,35.29-7.78,48.75,0C281.18,236,284.47,242.09,283.27,247.93Z" style="fill:#455a64"></path><path d="M281.2,252.75a22.9,22.9,0,0,1-7.78,6.91c-13.46,7.77-35.29,7.77-48.75,0a22.9,22.9,0,0,1-7.78-6.91,13.15,13.15,0,0,1-2.06-4.82h0l1.53,10.51c.7,4.23,3.85,8.35,9.47,11.59,12.83,7.4,33.62,7.4,46.45,0,5.54-3.2,8.69-7.27,9.44-11.44l.08-.54,1.48-10.12A13,13,0,0,1,281.2,252.75Z" style="fill:#37474f"></path><path d="M269.36,233.86c-11.22-6.48-29.41-6.48-40.62,0-6.35,3.67-9.1,8.62-8.27,13.4.64,3.67,3.4,7.24,8.27,10.05,11.21,6.48,29.4,6.48,40.62,0,4.86-2.81,7.62-6.38,8.26-10C278.46,242.48,275.71,237.53,269.36,233.86Z" style="fill:#37474f"></path><path d="M222.37,251.7a19.23,19.23,0,0,0,6.37,5.61c11.21,6.48,29.4,6.48,40.62,0a19.23,19.23,0,0,0,6.37-5.61c-.08-3.88-2.68-7.74-7.81-10.7-10.42-6-27.32-6-37.74,0C225.05,244,222.45,247.83,222.37,251.7Z" style="fill:#e0e0e0"></path></g><g id="freepik--flower--inject-211"><path d="M251.36,225a12.77,12.77,0,0,1,6.18-10.76c7-4.31,15.76,1.44,16.13,2.47s-1.25,5.46-4.6,7.75S258.57,230.13,251.36,225Z" style="fill:#FF9F00"></path><path d="M273.68,216.74A20.17,20.17,0,0,0,251.37,225a12.76,12.76,0,0,1,6.17-10.76C264.56,210,273.3,215.71,273.68,216.74Z" style="opacity:0.1"></path><path d="M252.6,245.63h0c-3.36-11.49-2.16-24.87-1.23-31.85,1.65-12.4,1-19.23,0-23.48-1.58-6.73-3-10.1-4-9.78s-.45,3.8.18,10.31c.8,8.22-.36,15.4-1.82,24.22a123.7,123.7,0,0,0-1.26,31.15h0a2.17,2.17,0,0,0,1.18,1.43,6.38,6.38,0,0,0,5.77,0,2.18,2.18,0,0,0,1.17-1.43A1.22,1.22,0,0,0,252.6,245.63Z" style="fill:#FF9F00"></path><path d="M252.6,245.63h0c-3.36-11.49-2.16-24.87-1.23-31.85,1.65-12.4,1-19.23,0-23.48-1.58-6.73-3-10.1-4-9.78s-.45,3.8.18,10.31c.8,8.22-.36,15.4-1.82,24.22a123.7,123.7,0,0,0-1.26,31.15h0a2.17,2.17,0,0,0,1.18,1.43,6.38,6.38,0,0,0,5.77,0,2.18,2.18,0,0,0,1.17-1.43A1.22,1.22,0,0,0,252.6,245.63Z" style="opacity:0.1"></path><path d="M243.92,222.27a13.91,13.91,0,0,0-10.73-8.91c-8.39-1.42-14,3.76-14,5.41s.78,2,3.91,4.51,7.6,5.78,12.88,5A10.2,10.2,0,0,0,243.92,222.27Z" style="fill:#FF9F00"></path><path d="M243.92,222.27a13.91,13.91,0,0,0-10.73-8.91c-8.39-1.42-14,3.76-14,5.41C222.73,216.54,236.51,214,243.92,222.27Z" style="opacity:0.15"></path><path d="M243.92,222.27c-7.41-8.31-21.19-5.73-24.72-3.49,0-1.66,5.6-6.84,14-5.42A13.91,13.91,0,0,1,243.92,222.27Z" style="fill:#FF9F00"></path><path d="M243.92,222.27c-7.41-8.31-21.19-5.73-24.72-3.49,0-1.66,5.6-6.84,14-5.42A13.91,13.91,0,0,1,243.92,222.27Z" style="opacity:0.1"></path><path d="M253.05,203.34A10,10,0,0,1,259.9,196c5.86-1.79,10.33,1.4,10.5,2.57s-.06,1.9-2.07,4-4.79,4.13-8.64,4.08A7.93,7.93,0,0,1,253.05,203.34Z" style="fill:#FF9F00"></path><path d="M253.05,203.34A10,10,0,0,1,259.9,196c5.86-1.79,10.33,1.4,10.5,2.57C267.67,197.27,257.58,196.72,253.05,203.34Z" style="opacity:0.15"></path><path d="M253.05,203.34c4.53-6.63,14.62-6.07,17.35-4.79-.17-1.19-4.64-4.37-10.51-2.58A10,10,0,0,0,253.05,203.34Z" style="fill:#FF9F00"></path><path d="M253.05,203.34c4.53-6.63,14.62-6.07,17.35-4.79-.17-1.19-4.64-4.37-10.51-2.58A10,10,0,0,0,253.05,203.34Z" style="opacity:0.1"></path><path d="M246.87,201.76s-1.46-5.61-6.16-7.6-9.78-1-10.6.22,1.23,6.86,5.85,8.93C241.67,205.87,246.46,203.26,246.87,201.76Z" style="fill:#FF9F00"></path><path d="M246.87,201.76c-6.65-6-16.76-7.39-16.76-7.39.82-1.23,5.8-2.24,10.6-.2C245.3,196.1,246.79,201.49,246.87,201.76Z" style="opacity:0.1"></path><g id="freepik--Twitter--inject-211"><path d="M249.93,173l-4.85-9.11,3.9-11.25v-6.88l-11.92,6.88v6.89l5.12,8.88a.8.8,0,0,0,.35.31h0Z" style="fill:#263238"></path><path d="M270,109.23a7.89,7.89,0,0,0-3.58-6.19l-2.91-1.68a7.84,7.84,0,0,0-7.15,0l-31,17.91a7.9,7.9,0,0,0-3.57,6.19v35.85a7.9,7.9,0,0,0,3.57,6.19l2.91,1.68a7.9,7.9,0,0,0,7.15,0l9.16-5.29,5.12,8.87a.76.76,0,0,0,1.38-.14L256.45,157l10-5.74a7.91,7.91,0,0,0,3.58-6.2Z" style="fill:#37474f"></path><path d="M221.75,161.31a7.9,7.9,0,0,0,3.57,6.19l2.91,1.68a8,8,0,0,0,6.54.29c-1.68.64-3-.31-3-2.35V131.27a7.36,7.36,0,0,1,1-3.52l-10.06-5.81a7.36,7.36,0,0,0-1,3.52Z" style="fill:#263238"></path><path d="M269.87,108.21c-.42-1.52-1.8-2-3.45-1l-31,17.92a7.22,7.22,0,0,0-2.52,2.67L222.8,122a7.23,7.23,0,0,1,2.52-2.67l31-17.92a7.92,7.92,0,0,1,7.16,0l2.92,1.68A7.91,7.91,0,0,1,269.87,108.21Z" style="fill:#455a64"></path><path d="M256.83,140.89a31.53,31.53,0,0,0,2.76-13.11,24.1,24.1,0,0,0,2.27-4.44,16.22,16.22,0,0,1-2.61,2.46,12,12,0,0,0,2-4.5,17.77,17.77,0,0,1-2.89,3.13,2.75,2.75,0,0,0-3.31,0c-2.93,1.69-5.08,6.58-4.42,10-3.78,1.93-7.12,1.45-9.36-.92-1.19,3.41-.62,6.64,1.4,7.27a3.23,3.23,0,0,1-2,.43c-.05,2.84,1.45,4.59,3.64,3.91a5.64,5.64,0,0,1-2,1.29c.58,2.07,2.25,2.85,4.24,1.75a15.65,15.65,0,0,1-6.72,6.39,9.06,9.06,0,0,0,7-1.3c4.49-2.59,7.94-7.27,10.14-12.35" style="fill:#f5f5f5"></path></g></g><path d="M86.51,199.84v16.89l3.21-1.85c.63-.36.9-.07.9,1v.51a2,2,0,0,1-.9,2l-11.63,6.72c-.63.36-.9.07-.9-1v-.51a2,2,0,0,1,.9-2l4-2.31V205.83L78,208.78c-.77.45-1-1.13-1-2a1.68,1.68,0,0,1,.79-1.29l7.46-5.7C85.76,199.56,86.51,199.48,86.51,199.84Z" style="fill:#455a64"></path><path d="M108.92,186.69a1.9,1.9,0,0,1-.24.77l-5.79,12.23,6.57,6.28a.67.67,0,0,1,.24.49c0,.27-.51.75-1.68,1.42l-1.74,1c-.87.5-1.56.78-1.83.48l-5.64-5.86-.12.1v8.7c0,.63-.54,1.27-1.8,2l-1,.6c-1.26.73-1.8.71-1.8.08v-19.2c0-.63.54-1.27,1.8-2l1-.61c1.26-.73,1.8-.71,1.8-.08v8l.12,0L104,189.64a4.07,4.07,0,0,1,1.8-1.61l1.41-.82C108.41,186.54,108.92,186.43,108.92,186.69Z" style="fill:#455a64"></path><path d="M159.69,138.78v.81a1.75,1.75,0,0,1-.9,1.72l-6.06,3.5-.3,4.46.78-.45c4.53-2.61,7.53-2.79,7.53,2.37s-4.05,9.06-7.68,11.16c-3.39,2-5.88,2.43-5.88,1.23,0-.54.93-2.91,1.62-3.3a12.21,12.21,0,0,0,4.23-1.43,5.92,5.92,0,0,0,3.21-4.94c0-2.1-1-2.76-3.75-1.16l-3.27,1.88c-.87.51-1.11.28-1.11-.56l.57-9.23a2.16,2.16,0,0,1,1.26-1.93l8.85-5.11C159.42,137.44,159.69,137.73,159.69,138.78Z" style="fill:#455a64"></path><path d="M179,126.5a2,2,0,0,1-.24.77L173,139.49l6.57,6.29a.65.65,0,0,1,.24.49c0,.27-.51.74-1.68,1.42l-1.74,1c-.87.5-1.56.78-1.83.49l-5.64-5.87-.12.1v8.7c0,.63-.54,1.27-1.8,2l-1,.61c-1.26.73-1.8.71-1.8.08V135.6c0-.63.54-1.27,1.8-2l1-.61c1.26-.72,1.8-.71,1.8-.08v8l.12,0,5.22-11.47a4.07,4.07,0,0,1,1.8-1.61l1.41-.81C178.53,126.34,179,126.23,179,126.5Z" style="fill:#455a64"></path><path d="M221.72,81.23V98.12l3.21-1.85c.63-.37.9-.07.9,1v.51a2,2,0,0,1-.9,2l-11.64,6.72c-.63.36-.9.07-.9-1V105a2,2,0,0,1,.9-2l4-2.31V87.22l-4.08,3c-.78.45-1-1.13-1-2a1.69,1.69,0,0,1,.78-1.29l7.47-5.69C221,80.94,221.72,80.87,221.72,81.23Z" style="fill:#455a64"></path><path d="M242.3,79.25c0,6.75-2.67,12.28-7.11,14.84s-7.11.12-7.11-6.63,2.67-12.28,7.11-14.84S242.3,72.5,242.3,79.25Zm-9.72,5.61c0,4.77.93,6.7,2.61,5.72s2.61-4,2.61-8.73-.93-6.7-2.61-5.72S232.58,80.09,232.58,84.86Z" style="fill:#455a64"></path><path d="M260.18,58.82a2,2,0,0,1-.24.77l-5.79,12.22,6.57,6.29a.65.65,0,0,1,.24.49c0,.27-.51.74-1.68,1.42l-1.74,1c-.87.5-1.56.78-1.83.49l-5.64-5.87-.12.1v8.7c0,.63-.54,1.27-1.8,2L247.1,87c-1.26.72-1.8.71-1.8.08V67.92c0-.63.54-1.27,1.8-2l1.05-.61c1.26-.73,1.8-.71,1.8-.08v8l.12,0,5.22-11.47a4.07,4.07,0,0,1,1.8-1.61l1.41-.81C259.67,58.66,260.18,58.55,260.18,58.82Z" style="fill:#455a64"></path></g><g id="freepik--Character--inject-211"><g id="freepik--character--inject-211"><path d="M374,161.31c.12,5.41-3.84,11.09-9.28,20.75-3.8,6.75-7.56,11.54-12.47,18.56-1.21,1.73-2.09,3.07-4.45,6.37a17,17,0,0,1-3.25,3.8,21.67,21.67,0,0,1-5.41,3,14.62,14.62,0,0,1-7.71.81,9.55,9.55,0,0,1-3-1,28.61,28.61,0,0,0,12.1-5.28c3.91-3.12,5.35-6.72,4.51-9.9h0l-.54-2.11,0,0,.17-.22c.05-.08.13-.18.22-.3l.42-.61c.14-.2.29-.44.45-.7l.51-.87a31.13,31.13,0,0,0,3.34-8.75c.12-.56.22-1.14.3-1.75.8-1.79,1.61-3.62,2.42-5.34a83.65,83.65,0,0,0,5.88-17s-6.46-24.27-5.44-29.86c1.27-7,6.52-8.34,11.14-8.61l2.13,2.53C368.38,132.11,373.62,143.81,374,161.31Z" style="fill:#f28f8f"></path><path d="M344.58,196.36l-2.77-2.26a26.09,26.09,0,0,0,4.39-9.95c1.39-6.37-.49-14.69-3.59-15.91-3.29-1.28-6.83,1.74-6.87,1.77l-2.37-2.67c.21-.19,5.19-4.52,10.54-2.42,5.79,2.27,7.26,13.17,5.78,20A29.36,29.36,0,0,1,344.58,196.36Z" style="fill:#FF9F00"></path><path d="M345,188.12a23.76,23.76,0,0,1-3.2,6l2.77,2.26a22.44,22.44,0,0,0,1.77-2.7C346,192.11,345.52,190.19,345,188.12Z" style="opacity:0.1"></path><path d="M337.55,165a13.73,13.73,0,0,0-4.18,2.39l2.37,2.67a10.06,10.06,0,0,1,4-2A11,11,0,0,0,337.55,165Z" style="opacity:0.1"></path><path d="M345.06,198.43h0l-7.48-29h0c-.59-2.31-2.6-4.36-6-5.68-7.3-2.86-18.2-1.22-24.34,3.68-2.83,2.26-4.13,4.81-4,7.19l0,0,1.41,29.86h0c.14,3.28,2.59,6.29,7.24,8.11,8.6,3.37,21.43,1.43,28.65-4.33C344.46,205.2,345.9,201.61,345.06,198.43Z" style="fill:#FF9F00"></path><path d="M330.51,176.57c-4.64,3.71-12.87,5-18.41,2.79s-6.24-6.93-1.6-10.63,12.88-4.94,18.41-2.78S335.15,172.88,330.51,176.57Z" style="opacity:0.1"></path><path d="M314,211.47a9.62,9.62,0,0,0,2-11.35s2.81,3.54,1.63,7.09S314,211.47,314,211.47Z" style="opacity:0.2"></path><path d="M331.61,163.79c-7.3-2.86-18.2-1.22-24.34,3.68s-5.18,11.19,2.12,14.05,18.21,1.22,24.35-3.68S338.93,166.65,331.61,163.79Zm-1.1,12.78c-4.64,3.71-12.87,5-18.41,2.79s-6.24-6.93-1.6-10.63,12.88-4.94,18.41-2.78S335.15,172.88,330.51,176.57Z" style="fill:#fff;opacity:0.4"></path><path d="M313.75,197.77s-1.67-1.29-9.42-2.53c-2.36-.37-6-.74-7.35-1.11s-1.85-2.07-3.05-3.41a8.18,8.18,0,0,0-4.38-2.42l-3,15.56a8.29,8.29,0,0,0,5.22-.53c2.91-1.13,4-1.62,5.09-1.1a16.27,16.27,0,0,1,3.29,2.28c3.12,2.86,7.51,6.49,11.72,8.14C317.33,210.89,319.33,201.46,313.75,197.77Z" style="fill:#FF9F00"></path><ellipse cx="287.88" cy="196.04" rx="7.95" ry="5.61" transform="translate(56.54 456.39) rotate(-82.63)" style="fill:#FF9F00"></ellipse><path d="M317.06,204.27c0,3.63-2,7.34-5.16,8.38-4.21-1.65-8.6-5.28-11.72-8.13a16.2,16.2,0,0,0-3.29-2.29c-1.1-.52-2.18,0-5.09,1.1a8.55,8.55,0,0,1-5.17.55,4.83,4.83,0,0,0,4.47-1.76,9.18,9.18,0,0,0,2-3.62,13.65,13.65,0,0,0,2.87.64c2.67.4,4.9,2.55,8,4.78s6.52,4.85,9.52,4.26A4.11,4.11,0,0,0,317.06,204.27Z" style="opacity:0.1"></path><ellipse cx="287.88" cy="196.04" rx="7.95" ry="5.61" transform="translate(56.54 456.39) rotate(-82.63)" style="opacity:0.05"></ellipse><g style="opacity:0.1"><path d="M289,192a1.47,1.47,0,0,0,.21-1.58.65.65,0,0,0-1.12-.14,1.47,1.47,0,0,0-.21,1.58A.65.65,0,0,0,289,192Z"></path><path d="M288.51,195.28a1.47,1.47,0,0,0,.2-1.58.64.64,0,0,0-1.11-.14,1.47,1.47,0,0,0-.21,1.58A.64.64,0,0,0,288.51,195.28Z"></path><path d="M288,198.54a1.49,1.49,0,0,0,.2-1.59.64.64,0,0,0-1.11-.14,1.47,1.47,0,0,0-.21,1.58A.65.65,0,0,0,288,198.54Z"></path><path d="M287.57,201.79a1.51,1.51,0,0,0,.2-1.59.64.64,0,0,0-1.11-.14,1.47,1.47,0,0,0-.21,1.58A.65.65,0,0,0,287.57,201.79Z"></path><path d="M291.25,193.93a1.49,1.49,0,0,0,.2-1.58.65.65,0,0,0-1.12-.15,1.49,1.49,0,0,0-.2,1.58A.65.65,0,0,0,291.25,193.93Z"></path><path d="M286.29,193.35a1.47,1.47,0,0,0,.21-1.58.65.65,0,0,0-1.12-.15,1.45,1.45,0,0,0-.2,1.58A.64.64,0,0,0,286.29,193.35Z"></path><path d="M290.7,197.21a1.47,1.47,0,0,0,.21-1.58.65.65,0,0,0-1.12-.15,1.47,1.47,0,0,0-.21,1.58A.65.65,0,0,0,290.7,197.21Z"></path><path d="M285.75,196.63a1.49,1.49,0,0,0,.2-1.58.65.65,0,0,0-1.12-.15,1.49,1.49,0,0,0-.2,1.58A.65.65,0,0,0,285.75,196.63Z"></path><path d="M290.16,200.49a1.51,1.51,0,0,0,.2-1.59.65.65,0,0,0-1.12-.14,1.49,1.49,0,0,0-.2,1.58A.65.65,0,0,0,290.16,200.49Z"></path><path d="M285.2,199.91a1.49,1.49,0,0,0,.21-1.59.65.65,0,0,0-1.12-.14,1.47,1.47,0,0,0-.21,1.58A.65.65,0,0,0,285.2,199.91Z"></path></g><path d="M285,196.26H285a9.72,9.72,0,0,0-1.42-.07.55.55,0,0,1-.51-.5.49.49,0,0,1,.49-.5,10.33,10.33,0,0,1,1.56.08.5.5,0,0,1-.06,1Z" style="fill:#fafafa"></path><path d="M264.5,238.28l-.11,0a.49.49,0,0,1-.37-.6l.69-3a.5.5,0,0,1,.6-.38.51.51,0,0,1,.38.6l-.7,3A.5.5,0,0,1,264.5,238.28Zm1.86-8h-.12a.5.5,0,0,1-.37-.6l.69-3a.51.51,0,0,1,.6-.37.5.5,0,0,1,.38.6l-.7,3A.5.5,0,0,1,266.36,230.32Zm1.84-8h-.11a.49.49,0,0,1-.37-.6l.69-3a.5.5,0,1,1,1,.22l-.69,3A.49.49,0,0,1,268.2,222.36Zm1.85-8-.12,0a.5.5,0,0,1-.37-.6l.43-1.88q.13-.57.27-1.11a.5.5,0,0,1,1,.25c-.09.35-.18.72-.26,1.09l-.44,1.88A.5.5,0,0,1,270.05,214.41Zm2.21-7.85a.57.57,0,0,1-.18,0,.51.51,0,0,1-.29-.65c.39-1,.82-2,1.26-2.85a.5.5,0,0,1,.67-.21.49.49,0,0,1,.22.67,28.33,28.33,0,0,0-1.21,2.75A.51.51,0,0,1,272.26,206.56Zm4.09-7a.51.51,0,0,1-.34-.14.49.49,0,0,1,0-.7,11.86,11.86,0,0,1,2.45-2,.51.51,0,0,1,.69.16.5.5,0,0,1-.17.69,11,11,0,0,0-2.24,1.87A.52.52,0,0,1,276.35,199.56Z" style="fill:#fafafa"></path><path d="M263,244.71l-.11,0a.49.49,0,0,1-.37-.6l.34-1.45a.5.5,0,1,1,1,.22l-.34,1.46A.5.5,0,0,1,263,244.71Z" style="fill:#fafafa"></path><path d="M290.5,196.92h-.06a11.37,11.37,0,0,0-1.42-.08.51.51,0,0,1-.51-.49.5.5,0,0,1,.49-.51,11.91,11.91,0,0,1,1.56.08.5.5,0,0,1-.06,1Z" style="fill:#fafafa"></path><path d="M270,238.93h-.12a.5.5,0,0,1-.37-.6l.69-3a.5.5,0,1,1,1,.22l-.7,3A.49.49,0,0,1,270,238.93Zm1.85-8-.12,0a.5.5,0,0,1-.37-.6l.69-3a.49.49,0,0,1,.6-.37.5.5,0,0,1,.38.6l-.7,3A.49.49,0,0,1,271.83,231Zm1.84-8h-.11a.49.49,0,0,1-.37-.6l.69-3a.5.5,0,0,1,.6-.37.5.5,0,0,1,.37.6l-.69,3A.5.5,0,0,1,273.67,223Zm1.85-8h-.12a.5.5,0,0,1-.37-.6l.43-1.88q.14-.57.27-1.11a.5.5,0,1,1,1,.25c-.09.35-.18.71-.26,1.08l-.44,1.89A.49.49,0,0,1,275.52,215.06Zm2.21-7.84a.58.58,0,0,1-.18,0,.5.5,0,0,1-.29-.64,30.42,30.42,0,0,1,1.26-2.85.5.5,0,0,1,.67-.22.49.49,0,0,1,.22.67,29.45,29.45,0,0,0-1.21,2.75A.52.52,0,0,1,277.73,207.22Zm4.09-7a.49.49,0,0,1-.36-.84,11.8,11.8,0,0,1,2.45-2,.49.49,0,0,1,.69.16.51.51,0,0,1-.17.69,11,11,0,0,0-2.24,1.86A.49.49,0,0,1,281.82,200.21Z" style="fill:#fafafa"></path><path d="M268.47,245.36h-.11a.49.49,0,0,1-.37-.6l.34-1.46a.5.5,0,1,1,1,.23L269,245A.49.49,0,0,1,268.47,245.36Z" style="fill:#fafafa"></path><path d="M288.27,200.52a.52.52,0,0,1-.46-.29.49.49,0,0,1,.25-.66,4.38,4.38,0,0,1,1.65-.45.52.52,0,0,1,.49.51.51.51,0,0,1-.5.49,3.78,3.78,0,0,0-1.22.35A.41.41,0,0,1,288.27,200.52Z" style="fill:#fafafa"></path><path d="M273.89,241.7h-.11a.49.49,0,0,1-.37-.6l.63-2.71a.49.49,0,0,1,.6-.37.5.5,0,0,1,.37.6l-.63,2.71A.49.49,0,0,1,273.89,241.7Zm1.69-7.22-.12,0a.5.5,0,0,1-.37-.6l.63-2.71a.5.5,0,0,1,.6-.37.49.49,0,0,1,.37.6l-.63,2.71A.5.5,0,0,1,275.58,234.48Zm1.68-7.23h-.12a.51.51,0,0,1-.37-.6l.63-2.71a.5.5,0,0,1,.6-.38.5.5,0,0,1,.37.6l-.63,2.71A.5.5,0,0,1,277.26,227.25Zm1.67-7.23h-.11a.5.5,0,0,1-.38-.6l.63-2.71a.5.5,0,0,1,.6-.38.49.49,0,0,1,.37.6l-.62,2.71A.51.51,0,0,1,278.93,220Zm1.73-7.21-.13,0a.5.5,0,0,1-.35-.62c.27-.93.55-1.83.85-2.68a.5.5,0,0,1,.94.33c-.29.83-.57,1.71-.82,2.63A.51.51,0,0,1,280.66,212.81Zm2.68-6.9a.53.53,0,0,1-.24-.06.5.5,0,0,1-.2-.68,19.57,19.57,0,0,1,1.52-2.41.5.5,0,1,1,.8.6,18.81,18.81,0,0,0-1.44,2.29A.51.51,0,0,1,283.34,205.91Z" style="fill:#fafafa"></path><path d="M272.5,247.68h-.11a.51.51,0,0,1-.38-.6l.34-1.46a.49.49,0,0,1,.6-.37.5.5,0,0,1,.38.6l-.34,1.45A.5.5,0,0,1,272.5,247.68Z" style="fill:#fafafa"></path><path d="M413.32,132.32h0a17.1,17.1,0,0,1-17.1-17.1V77.9h0A17.11,17.11,0,0,1,413.32,95Z" style="fill:#263238"></path><path d="M397,123.1c4.18.21,7.26,1,10.1,9.22s8.78,39.79,6.79,43.09l-13.46-8.27-3.08-14.65C389.91,146.08,390.37,125.41,397,123.1Z" style="fill:#ffa8a7"></path><polygon points="424.21 347.14 414.12 350.13 409.76 335.44 420.07 331.91 424.21 347.14" style="fill:#ffa8a7"></polygon><path d="M412.64,345.16l-.43-1.45c-.84.71-1.1,9.63-3.45,14.77-2.58,5.63-5.31,9.63-6.46,12.16-1.53,3.38,4.45,5.17,11.06,1.91,3.28-1.62,8.54-5.85,9.37-8.55s.55-6.23,1.28-8.25,3-4.7,3.09-6.8c0-1.16-1.07-3.33-2.15-5.13-1-1.64-2.09-3.45-2.65-3.1l.33,1.1a10.44,10.44,0,0,1-4.23,4.11C416.85,346.71,413.18,346.91,412.64,345.16Z" style="fill:#263238"></path><path d="M399.22,179.53c6.08,7.8,7.17,15.86,5.85,38.67s-1.75,41.89-1.41,43.17,7.49,10.45,9.81,18.79,8.58,55.64,8.58,55.64-3.55,5.2-11.47,5.2c0,0-25.38-69.11-27.08-74.24S371,207.57,371,207.57l1.64-30.51Z" style="fill:#37474f"></path><rect x="349.52" y="327.72" width="10.52" height="15.32" transform="translate(4.46 -4.65) rotate(0.76)" style="fill:#ffa8a7"></rect><path d="M352.77,205.77C353.69,195.24,356,177,356,177l26.93-1.58c4.37,6.8,2.47,18.11,1.28,28.32L368.76,264c.31,2.89,3,9,0,24.54-3.32,17.33-8.24,42.18-8.24,42.18s-7.67,3.87-11.46-.34c0,0-2-56.36-.61-71.36C350,242.83,352.13,213,352.77,205.77Z" style="fill:#37474f"></path><path d="M349.49,337.78l0-1.5c-1,.42-3.92,8.86-7.7,13.07C337.68,354,333.88,357,332,359c-2.47,2.77,2.7,6.26,10,5.11,3.61-.57,9.88-3,11.48-5.37s2.38-5.79,3.68-7.5,4.26-3.59,5-5.58c.39-1.09,0-3.5-.53-5.53-.46-1.87-1-3.92-1.6-3.75,0,.22,0,1.14,0,1.14a10.33,10.33,0,0,1-5.25,2.68C353,340.52,349.47,339.62,349.49,337.78Z" style="fill:#263238"></path><path d="M375.69,231.35l-4.4-22.12a47.67,47.67,0,0,1-11-5.61,33,33,0,0,0,7.7,7.09Z" style="fill:#263238"></path><path d="M357.65,159.88c-.66,6.14-3.14,28.88-3.14,28.88,20.3,10.83,45.49,3.65,49.34-.81-3.49-11.49-7.25-18-10.12-21.09l3.66-14.37s-9.06-13-.35-29.39l-10.77-.88-15.81-.46c-3.78.21-6.47.57-6.47.57-2.42,2.27-6.24,8.5-8.72,14.83C353.68,141.25,352,147.78,357.65,159.88Z" style="fill:#FF9F00"></path><path d="M372.75,112.34h8.43a19.9,19.9,0,0,0,19.9-19.9h0A24.11,24.11,0,0,0,377,68.32h0a24.12,24.12,0,0,0-24.12,24.12h0A19.9,19.9,0,0,0,372.75,112.34Z" style="fill:#263238"></path><path d="M361.46,78.82c-2.55,1.51-5.69,7.92-5.38,21.35.26,11.38,3.95,14.2,5.8,15s5.43.31,8.9-.26v6.83s-4.8,5.57-4.5,8.71,6.94,3.87,11.43.81,8.28-9,8.28-9l-.08-15.71s2,2,5.51-1c2.86-2.5,3.83-6.72,1.6-9a5,5,0,0,0-7.94,1.58s-5.54.21-12.92-3.85A20.74,20.74,0,0,1,361.46,78.82Z" style="fill:#ffa8a7"></path><path d="M368.79,97.31a1.44,1.44,0,0,0,1.35,1.55,1.49,1.49,0,1,0-1.35-1.55Z" style="fill:#263238"></path><g style="opacity:0.5;mix-blend-mode:multiply"><path d="M368.4,107,365.08,108a1.71,1.71,0,0,0,2.16,1.19A1.82,1.82,0,0,0,368.4,107Z" style="fill:#f28f8f"></path></g><path d="M357.05,92.91l2.89-2a1.69,1.69,0,0,0-2.4-.5A1.85,1.85,0,0,0,357.05,92.91Z" style="fill:#263238"></path><path d="M357.72,96.27a1.45,1.45,0,0,0,1.35,1.56,1.48,1.48,0,0,0,1.51-1.42,1.43,1.43,0,1,0-2.86-.14Z" style="fill:#263238"></path><g style="opacity:0.5;mix-blend-mode:multiply"><polygon points="364.47 95.45 364.24 104.07 359.71 102.67 364.47 95.45" style="fill:#f28f8f"></polygon></g><g style="opacity:0.5;mix-blend-mode:multiply"><path d="M370.78,114.92c3.66-.48,11.2-2.65,12.37-5.63a7.66,7.66,0,0,1-2.64,3.8c-2.25,1.93-9.73,4.11-9.73,4.11Z" style="fill:#f28f8f"></path></g><path d="M380.46,69.61l.55-6.32a3.07,3.07,0,0,0-3.49,2.77A3.34,3.34,0,0,0,380.46,69.61Z" style="fill:#263238"></path><path d="M380.8,70.25l5.12-3.75a3.08,3.08,0,0,0-4.39-.8A3.33,3.33,0,0,0,380.8,70.25Z" style="fill:#263238"></path><path d="M400.47,167.14s-29.69,7.67-35,8.27c-4.46.5-7.87.37-11.11-2s-5.49-2.44-5.49-2.44a28.43,28.43,0,0,1,1.13,6c-1.39,1.63-3.43.32-3.43.32a17.22,17.22,0,0,0-.51-3.17c-3.68,1.37-5.62,3.06-5,5.48.5,1.87,1.5,8.6,7.35,9.57,4.77.79,13.57-2.09,19.56-3.65s38.5-5,45.93-10.09a9.66,9.66,0,0,0-13.46-8.27Z" style="fill:#ffa8a7"></path></g></g></svg>