<svg xmlns="http://www.w3.org/2000/svg" viewBox="0 0 500 500"><g id="freepik--background-complete--inject-20"><path d="M454.25,138H342.11s11.12-30.36,28.23-30.36,22.47,21,22.47,21,11.55-11.39,21-11.39,17.73,15.05,17.73,15.05S445,124.15,454.25,138Z" style="fill:#ebebeb"></path><path d="M391.48,68.77h-52.4s11.71-17,20.93-17S372,63.12,372,63.12s6.51-5.28,12.55-4.34S391.48,68.77,391.48,68.77Z" style="fill:#ebebeb"></path><path d="M149.79,232.11H97.38s11.71-17,20.94-17,12,11.31,12,11.31,6.51-5.28,12.54-4.34S149.79,232.11,149.79,232.11Z" style="fill:#ebebeb"></path><path d="M147.83,164.65H45.75s14-31.21,28.94-33.16,22.1,23.19,22.1,23.19,9.65-8.89,17.23-8.89,13.44,11.7,13.44,11.7S142.63,149.48,147.83,164.65Z" style="fill:#ebebeb"></path><path d="M219.58,87.44h-69s11.85-22.61,24.7-22.94,19.6,17.12,19.6,17.12S214.91,65.58,219.58,87.44Z" style="fill:#ebebeb"></path><path d="M276,188.82H207s11.85-22.61,24.7-22.94S251.3,183,251.3,183,271.29,167,276,188.82Z" style="fill:#ebebeb"></path><path d="M162.66,285.29s73.7-4.1,113.75-14.19c33.26-8.39,63.61-24.72,78.53-24.72,32.52,0,91.43,38.91,91.43,38.91H231.76" style="fill:#dbdbdb"></path><path d="M53.63,285.29s80-23,103.52-23c17.45,0,152.31,23,152.31,23H123.07" style="fill:#ebebeb"></path><path d="M97.89,315.13a13.16,13.16,0,1,1,3.6-15A13,13,0,0,1,97.89,315.13Z" style="fill:#ebebeb"></path><path d="M93.06,303a4,4,0,1,1-4.56-3.34A4,4,0,0,1,93.06,303Z" style="fill:#fff"></path><path d="M97.63,313.5l.26,1.63a13.16,13.16,0,0,1-13.67,2.11L84,315.61a6.92,6.92,0,1,1,13.67-2.11Z" style="fill:#fff"></path><path d="M216.71,408.21a19.46,19.46,0,0,1-19.92-4.66,19.46,19.46,0,1,1,19.92,4.66Z" style="fill:#ebebeb"></path><path d="M216.78,389a5.92,5.92,0,1,1-4.41-7.11A5.92,5.92,0,0,1,216.78,389Z" style="fill:#fff"></path><path d="M217.27,405.83l-.56,2.38a19.46,19.46,0,0,1-19.92-4.66l.55-2.37a10.23,10.23,0,0,1,19.93,4.65Z" style="fill:#fff"></path></g><g id="freepik--Shadow--inject-20"><ellipse cx="250" cy="447.24" rx="198.98" ry="13.85" style="fill:#ebebeb"></ellipse></g><g id="freepik--Floor--inject-20"><polygon points="45.75 285.81 96.82 285.56 147.88 285.47 250 285.31 352.12 285.47 403.19 285.56 454.25 285.81 403.19 286.05 352.12 286.14 250 286.31 147.88 286.14 96.82 286.05 45.75 285.81" style="fill:#263238"></polygon><path d="M117,285.54H79.51s.08-5.57,3.76-7.05a5,5,0,0,1,5.87,1.4s1.51-10.24,8.37-10.24,10.14,8.84,10.14,8.84a5.24,5.24,0,0,1,5.34-2.18C116.8,276.81,117,285.54,117,285.54Z" style="fill:#37474f"></path><path d="M448.31,285.54s-1.15-5.36-3.44-6.18-3.69,1.58-3.69,1.58-.54-5.12-3.79-6.65-5.69,1.6-5.69,1.6-2.49-6.49-6.95-6.49-6.7,9.5-6.7,9.5-2.63-2.83-5.33-1.23-2.7,7.87-2.7,7.87Z" style="fill:#37474f"></path><path d="M86.22,285.54H51.69s1.14-4.87,3.43-5.21a3.36,3.36,0,0,1,3.35,1.91s-.1-6.79,4.18-7.95,7.86,4.84,7.86,4.84,2.68-3.42,6.33-3.2,4.58,5.87,4.58,5.87S84.75,279.84,86.22,285.54Z" style="fill:#455a64"></path><path d="M412.5,285.54H391.29s0-3.16,2.13-4a2.86,2.86,0,0,1,3.33.8s.85-5.8,4.73-5.8,5.75,5,5.75,5a3,3,0,0,1,3-1.23C412.41,280.59,412.5,285.54,412.5,285.54Z" style="fill:#455a64"></path></g><g id="freepik--Plants--inject-20"><path d="M184.66,436.53H146.44s21-3.59,25.65-17.44,7.44-26.93,1.28-40.53S163.2,348.08,169.85,331c7.51-19.25,9.58-19-.19-46.35-.86-2.39,0-2.49,1.15-.95s8.37,19.67,9.23,24.62c0,0,7-11.62,9.58-11.79s1.68.28,0,2.22c-12,13.88-18.64,36.42-19,47.54s5.48,23.08,5.48,23.08,7.86-12,13-16.93,8.55-12.48,5.82-19.15,8.6,3.25,1,14.2c0,0,11.51-2.23,14.25,2.39s-7.53-5.47-17.62,3.59a47,47,0,0,0-13.16,19.84s9.82,22.36,6.66,34.88C180.89,428.58,184.66,436.53,184.66,436.53Z" style="fill:#FFC840"></path><path d="M184.66,436.53H146.44s21-3.59,25.65-17.44,7.44-26.93,1.28-40.53S163.2,348.08,169.85,331c7.51-19.25,9.58-19-.19-46.35-.86-2.39,0-2.49,1.15-.95s8.37,19.67,9.23,24.62c0,0,7-11.62,9.58-11.79s1.68.28,0,2.22c-12,13.88-18.64,36.42-19,47.54s5.48,23.08,5.48,23.08,7.86-12,13-16.93,8.55-12.48,5.82-19.15,8.6,3.25,1,14.2c0,0,11.51-2.23,14.25,2.39s-7.53-5.47-17.62,3.59a47,47,0,0,0-13.16,19.84s9.82,22.36,6.66,34.88C180.89,428.58,184.66,436.53,184.66,436.53Z" style="opacity:0.5"></path><circle cx="167.71" cy="278.74" r="15.45" transform="translate(-94.66 86.43) rotate(-22.73)" style="fill:#455a64"></circle><path d="M167.33,274.46c0,1,0,2,0,3h3.84c-.17,1.26-.31,2.43-.49,3.59,0,.12-.31.26-.47.27-.93,0-1.85,0-2.86,0v12.8a15.65,15.65,0,0,1-4.07-.63V281.39h-3.35v-3.86h3.28c0-.29,0-.52,0-.75,0-1,0-2,.08-3a4.24,4.24,0,0,1,3.76-4.07,30.75,30.75,0,0,1,4.19,0v3.5h-1.52a6.67,6.67,0,0,0-1.34.1A1.27,1.27,0,0,0,167.33,274.46Z" style="fill:#fff"></path><circle cx="160.54" cy="354.94" r="15.45" style="fill:#455a64"></circle><path d="M152.1,362.19a8.72,8.72,0,0,0,5.57-1.72c-2.31-.7-3.22-1.4-3.56-2.71l1.55-.08a4.23,4.23,0,0,1-3-3.91l1.59.42c-1.67-2.09-2-3.72-1-5.24a11.48,11.48,0,0,0,8.17,4.08c0-.26,0-.45,0-.65a3.72,3.72,0,0,1,2.19-3.77,3.77,3.77,0,0,1,4.33.52.81.81,0,0,0,.88.18l1.92-.71a3.94,3.94,0,0,1-1.51,1.95s0,.07,0,.11l1.91-.49.08.07c-.49.5-1,1-1.49,1.48a1,1,0,0,0-.41.85,11.18,11.18,0,0,1-10.17,11.2,11.36,11.36,0,0,1-6.63-1.35Z" style="fill:#fff"></path><circle cx="206.47" cy="326.12" r="15.43" style="fill:#37474f"></circle><path d="M215.67,321a3.87,3.87,0,0,0-4.06-4.15q-5.15,0-10.31,0a3.87,3.87,0,0,0-4,4.06c0,1.72,0,3.43,0,5.15s0,3.36,0,5a3.92,3.92,0,0,0,4.12,4.23c3.4,0,6.8,0,10.2,0a3.91,3.91,0,0,0,4.09-4.14C215.68,327.82,215.68,324.42,215.67,321ZM214,331.24a2.23,2.23,0,0,1-2.45,2.47q-5.1,0-10.2,0a2.23,2.23,0,0,1-2.46-2.46q0-5.14,0-10.28a2.26,2.26,0,0,1,2.46-2.49q5.08,0,10.19,0A2.26,2.26,0,0,1,214,321c0,1.71,0,3.43,0,5.14S214,329.53,214,331.24Z" style="fill:#fff"></path><path d="M206.48,321.29a4.81,4.81,0,1,0,4.78,4.88A4.8,4.8,0,0,0,206.48,321.29Zm-.06,8a3.26,3.26,0,0,1-3.16-3.17,3.21,3.21,0,0,1,6.41,0A3.25,3.25,0,0,1,206.42,329.3Z" style="fill:#fff"></path><path d="M212.72,321.17a1.1,1.1,0,0,1-2.2-.2,1.06,1.06,0,0,1,1.16-1A1.07,1.07,0,0,1,212.72,321.17Z" style="fill:#fff"></path><circle cx="171.18" cy="317.5" r="15.45" style="fill:#FFC840"></circle><path d="M161.33,327.35c.42-1.53.8-3,1.23-4.38a1.61,1.61,0,0,0-.12-1.27,9.91,9.91,0,1,1,18.85-4.1,10,10,0,0,1-9.38,9.54,10.65,10.65,0,0,1-4.91-.92,1.51,1.51,0,0,0-.94-.08C164.52,326.51,163,326.92,161.33,327.35Zm2.4-2.33c1-.25,1.8-.49,2.64-.66a1.4,1.4,0,0,1,.88.11,8.81,8.81,0,0,0,4,1,8.25,8.25,0,0,0,8.24-9.62,7.71,7.71,0,0,0-6.2-6.47,8.25,8.25,0,0,0-9,12.17,1.47,1.47,0,0,1,.12,1C164.22,323.35,164,324.13,163.73,325Z" style="fill:#fff"></path><path d="M167,313.38c.68-.91,1.58-.73,2.05.27.19.39.23.52.41,1a1.22,1.22,0,0,1-.27,1.56c-.36.32-.32.6-.08,1a6.89,6.89,0,0,0,3,2.54.66.66,0,0,0,.91-.2c.87-1,.88-1,2.11-.45l.42.2a1.15,1.15,0,0,1,.32,2,2.75,2.75,0,0,1-2.77.67,10.1,10.1,0,0,1-6-4.57,3.84,3.84,0,0,1-.75-2.24A3.37,3.37,0,0,1,167,313.38Z" style="fill:#fff"></path><path d="M216.7,350.86a5.45,5.45,0,1,1-5.44-5.44A5.45,5.45,0,0,1,216.7,350.86Z" style="fill:#455a64"></path><circle cx="211.26" cy="348.81" r="1.81" style="fill:#fff"></circle><path d="M214.39,353.8v.67h-6.27v-.67a3.14,3.14,0,0,1,6.27,0Z" style="fill:#fff"></path><circle cx="191.67" cy="295.4" r="5.44" style="fill:#37474f"></circle><path d="M189.57,297.22h-.44a.5.5,0,0,1-.5-.5.5.5,0,0,1,.5-.5h.62l.29-1.68h-.56a.5.5,0,1,1,0-1h.73l.19-1.15a.49.49,0,0,1,.5-.41.51.51,0,0,1,.5.58l-.17,1h1.51l.2-1.15a.49.49,0,0,1,.51-.41.5.5,0,0,1,.49.58l-.17,1h.45a.5.5,0,0,1,.5.5.51.51,0,0,1-.5.5h-.62l-.29,1.68h.55a.5.5,0,0,1,.5.5.5.5,0,0,1-.5.5h-.72l-.2,1.18a.5.5,0,0,1-.51.42.52.52,0,0,1-.5-.59l.19-1H190.6l-.2,1.18a.5.5,0,0,1-.51.42.49.49,0,0,1-.49-.59Zm2.71-1,.29-1.68h-1.5l-.29,1.68Z" style="fill:#fff"></path><path d="M181.53,370.56s14.32-3.95,22.08,10.06C203.61,380.62,189,383.3,181.53,370.56Z" style="fill:#37474f"></path><path d="M146.44,293.92S159.56,287,170.16,299C170.16,299,156.49,304.74,146.44,293.92Z" style="fill:#37474f"></path><path d="M185.18,366.7a13.6,13.6,0,0,1,16.66-1.77S194.1,371.65,185.18,366.7Z" style="fill:#37474f"></path><path d="M178.71,295a13.62,13.62,0,0,1,12.11-11.59S188.8,293.47,178.71,295Z" style="fill:#37474f"></path><path d="M149.77,329.93a13.61,13.61,0,0,1,14.78,7.9S154.37,339,149.77,329.93Z" style="fill:#37474f"></path><path d="M82.65,436.53H104s-13.61-19-16.69-29.15c-4.56-15.06,3.4-29.62,14.23-37.66,4.92-3.66,10,1.69,17.1,0,8.77-2.12,8.58-9.45,8.23-10.18s-1.58,6.41-5.78,7.81c-9.63,3.24-12.9-4.06-21.53-1.11a50,50,0,0,0,.13-9.23c-.39-5.1,5-20.16,19.35-18.62,1.85.2.73-1.06-2.65-1.32a17.18,17.18,0,0,0-7,1.25,14.38,14.38,0,0,0,3.32-7.48c.33-4.18,2.84-6.76,2.58-7.42s-2.39.79-3.31,5.17c0,0-2.12,6.82-4.64,9s-7.74,8.23-9.06,14.12c0,0-.38-3.7-1-10.81-.47-5.21-3.64-9.41-4.44-9.08s3.05,4.9,3.25,9.81-.74,10.2.22,14.27c1.54,6.51-.09,13.62-3.2,17.2s-11.2,10.88-11.6,24S86,431.1,82.65,436.53Z" style="fill:#FFC840"></path><g style="opacity:0.5"><path d="M82.65,436.53H104s-13.61-19-16.69-29.15c-4.56-15.06,3.4-29.62,14.23-37.66,4.92-3.66,10,1.69,17.1,0,8.77-2.12,8.58-9.45,8.23-10.18s-1.58,6.41-5.78,7.81c-9.63,3.24-12.9-4.06-21.53-1.11a50,50,0,0,0,.13-9.23c-.39-5.1,5-20.16,19.35-18.62,1.85.2.73-1.06-2.65-1.32a17.18,17.18,0,0,0-7,1.25,14.38,14.38,0,0,0,3.32-7.48c.33-4.18,2.84-6.76,2.58-7.42s-2.39.79-3.31,5.17c0,0-2.12,6.82-4.64,9s-7.74,8.23-9.06,14.12c0,0-.38-3.7-1-10.81-.47-5.21-3.64-9.41-4.44-9.08s3.05,4.9,3.25,9.81-.74,10.2.22,14.27c1.54,6.51-.09,13.62-3.2,17.2s-11.2,10.88-11.6,24S86,431.1,82.65,436.53Z"></path></g><circle cx="93.11" cy="335.89" r="9.53" style="fill:#FFC840"></circle><polygon points="89.56 339.55 89.56 332.23 98.28 335.89 89.56 339.55" style="fill:#fff"></polygon><path d="M131.85,360.9a5.45,5.45,0,1,1-5.45-5.45A5.45,5.45,0,0,1,131.85,360.9Z" style="fill:#FFC840"></path><path d="M129.44,361.6a7.66,7.66,0,0,1-3,2.89,7.66,7.66,0,0,1-3-2.89c-.75-1.52-.27-3.16.91-3.51,1.69-.52,2.13,2.44,2.13,2.44s.43-3,2.13-2.44C129.72,358.44,130.19,360.08,129.44,361.6Z" style="fill:#fff"></path><circle cx="116.56" cy="321.44" r="9.89" style="fill:#37474f"></circle><g id="freepik--QfoS7x.tif--inject-20"><path d="M119.44,317.39a2,2,0,0,0,.17.27h0A2.88,2.88,0,0,1,119.44,317.39Zm.19.29h0l.1.07Zm1.67,1.8v-.78l-.3-.07a3.07,3.07,0,0,1-.5-.2,2.66,2.66,0,0,1-.45-.29l-.21-.19,0,0,0,0-.16-.21-.08-.05-.31-.31a3.41,3.41,0,0,1-.36-.57,3,3,0,0,1-.22-.64l-.06-.24h0v0h-1.51s0,0,0,.05v7.78c0,.12,0,.23,0,.35a3.54,3.54,0,0,1-.08.45,1.51,1.51,0,0,1-.09.18,1.6,1.6,0,0,1-.33.4,1.29,1.29,0,0,1-.3.22,1.4,1.4,0,0,1-.48.18l-.19,0h-.18a1.59,1.59,0,0,1-.61-.13,1.23,1.23,0,0,1-.4-.23,1.15,1.15,0,0,1-.31-.38,2.53,2.53,0,0,1-.13-.35,1.18,1.18,0,0,0,.12.33h0l-.13-.09h0l-.14-.12a1.31,1.31,0,0,1-.28-.45c0-.1-.06-.2-.08-.3a1,1,0,0,1,0-.24s0-.1,0-.14a2.09,2.09,0,0,1,.08-.51,1.52,1.52,0,0,1,.67-.87,1.67,1.67,0,0,1,.5-.19l.23,0a1.45,1.45,0,0,1,.36,0,1.14,1.14,0,0,1,.26,0s0,0,0,0v-1.65h-.38l-.43.05a3.37,3.37,0,0,0-.48.12,2.52,2.52,0,0,0-.33.13,3.72,3.72,0,0,0-.48.27,2.34,2.34,0,0,0-.31.24,3.71,3.71,0,0,0-.29.27,3.79,3.79,0,0,0-.31.39,3,3,0,0,0-.3.52,3.65,3.65,0,0,0-.18.41,4.21,4.21,0,0,0-.16.61,2.89,2.89,0,0,0,0,.29,3.82,3.82,0,0,0,0,.58l0,.34a3,3,0,0,0,.1.52,3.11,3.11,0,0,0,.18.54,3.7,3.7,0,0,0,.31.55l.08.13a2.42,2.42,0,0,0,.24.28c-.07-.07-.13-.15-.19-.22v0l0,0,.07.06h0a3.62,3.62,0,0,0,.32.22,3,3,0,0,0,.43.24,4.12,4.12,0,0,0,.58.23c.1,0,.21,0,.31.06l.27.05h.13a2.82,2.82,0,0,0,.41,0l.36,0,.41-.07a3.16,3.16,0,0,0,.59-.2,2.82,2.82,0,0,0,.63-.37,2.79,2.79,0,0,0,.44-.4,3.07,3.07,0,0,0,.28-.35,3.65,3.65,0,0,0,.32-.54,3.71,3.71,0,0,0,.24-.66c0-.13.06-.25.09-.38a2.7,2.7,0,0,0,0-.28c0-.05,0-.1,0-.16,0-.71,0-1.43,0-2.14v-2.19l.07.06a3.09,3.09,0,0,0,.37.26,3.13,3.13,0,0,0,.36.19,3.74,3.74,0,0,0,.66.25,3.89,3.89,0,0,0,.49.12l.38.07.24,0h.15s0,0,0,0Zm-8.78,6.61h0Zm0,0Zm.2.24,0,0Zm4.92-10.52h0Zm.94,0v0Z" style="fill:#fefefe"></path><path d="M121.78,320.72s0,0,0,0l-.33,0-.27,0-.3-.06a4,4,0,0,1-.57-.16l-.45-.18a3.81,3.81,0,0,1-.52-.29l-.27-.21s0,0,0,0c0,.31,0,.61,0,.91v3.16c0,.11,0,.22,0,.32l0,.22-.06.3a2.9,2.9,0,0,1-.12.42,4.78,4.78,0,0,1-.19.48,3.65,3.65,0,0,1-.32.54l-.18.23-.18.2-.27.24-.27.19a2.38,2.38,0,0,1-.5.26,2.6,2.6,0,0,1-.47.16l-.29.06-.3,0h-.5l-.32,0-.26,0a2.14,2.14,0,0,1-.55-.15l-.31-.13a3.2,3.2,0,0,1-.51-.29,2.83,2.83,0,0,1-.28-.2,3,3,0,0,1-.32-.3h0l0,0a2.42,2.42,0,0,1-.24-.28l.08.06.07.06h0a3.62,3.62,0,0,0,.32.22,3,3,0,0,0,.43.24,4.12,4.12,0,0,0,.58.23c.1,0,.21,0,.31.06l.27.05h.13a2.82,2.82,0,0,0,.41,0l.36,0,.41-.07a3.16,3.16,0,0,0,.59-.2,2.82,2.82,0,0,0,.63-.37,2.79,2.79,0,0,0,.44-.4,3.07,3.07,0,0,0,.28-.35,3.65,3.65,0,0,0,.32-.54,3.71,3.71,0,0,0,.24-.66c0-.13.06-.25.09-.38a2.7,2.7,0,0,0,0-.28c0-.05,0-.1,0-.16,0-.71,0-1.43,0-2.14v-2.19l.07.06a3.09,3.09,0,0,0,.37.26,3.13,3.13,0,0,0,.36.19,3.74,3.74,0,0,0,.66.25,3.89,3.89,0,0,0,.49.12l.38.07.24,0h.15s0,0,0,0V318.7h0l.14,0,.22,0h.09s0,0,0,0h0Z" style="fill:#455a64"></path><path d="M115.53,320.11h-.39l-.43.05a3.37,3.37,0,0,0-.48.12,2.52,2.52,0,0,0-.33.13,3.72,3.72,0,0,0-.48.27,2.34,2.34,0,0,0-.31.24,3.71,3.71,0,0,0-.29.27,3.79,3.79,0,0,0-.31.39,3,3,0,0,0-.3.52,3.65,3.65,0,0,0-.18.41,4.21,4.21,0,0,0-.16.61,2.89,2.89,0,0,0,0,.29,3.82,3.82,0,0,0,0,.58l0,.34a3,3,0,0,0,.1.52,3.11,3.11,0,0,0,.18.54,3.7,3.7,0,0,0,.31.55l.08.13a.27.27,0,0,1-.08-.07,3.42,3.42,0,0,1-.36-.4,4.53,4.53,0,0,1-.3-.46,4.39,4.39,0,0,1-.26-.63,3.89,3.89,0,0,1-.12-.49l0-.29s0-.08,0-.12v-.49c0-.09,0-.18,0-.28a3.82,3.82,0,0,1,.11-.55,4.5,4.5,0,0,1,.16-.48,4.33,4.33,0,0,1,.4-.73c.07-.1.15-.19.23-.29a2.94,2.94,0,0,1,.84-.71,2.87,2.87,0,0,1,.67-.3,2.36,2.36,0,0,1,.51-.12l.28,0H115l.36,0,.11,0s0,0,0,0Z" style="fill:#FFC840"></path><path d="M118.6,315.83h-1.51s0,0,0,.05v7.78c0,.12,0,.23,0,.35a3.54,3.54,0,0,1-.08.45,1.51,1.51,0,0,1-.09.18,1.6,1.6,0,0,1-.33.4,1.29,1.29,0,0,1-.3.22,1.4,1.4,0,0,1-.48.18l-.19,0h-.18a1.59,1.59,0,0,1-.61-.13,1.23,1.23,0,0,1-.4-.23,1.15,1.15,0,0,1-.31-.38l.07,0a2.09,2.09,0,0,0,.44.16,1.68,1.68,0,0,0,1.15-.14,1.57,1.57,0,0,0,.3-.2,2,2,0,0,0,.35-.41,1,1,0,0,0,.15-.41c0-.1,0-.2,0-.31s0-.12,0-.18,0-.21,0-.32v-7.6s0,0,0,0h1.9s0,0,0,.05a2.85,2.85,0,0,0,0,.41Z" style="fill:#FFC840"></path><path d="M116,320.57v1.69c0,.05,0,0,0,0l-.14,0h-.19a2.21,2.21,0,0,0-.51.05,1.6,1.6,0,0,0-.46.17,1.48,1.48,0,0,0-.27.19,1.34,1.34,0,0,0-.33.42,1.42,1.42,0,0,0-.16.45,1.25,1.25,0,0,0,0,.19,2.18,2.18,0,0,0,0,.25,1.77,1.77,0,0,0,0,.32.19.19,0,0,0,0,.07,2.53,2.53,0,0,0,.13.35h0a.57.57,0,0,1-.13-.08l-.14-.12a1.31,1.31,0,0,1-.28-.45c0-.1-.06-.2-.08-.3a1,1,0,0,1,0-.24s0-.1,0-.14a2.09,2.09,0,0,1,.08-.51,1.52,1.52,0,0,1,.67-.87,1.67,1.67,0,0,1,.5-.19l.23,0a1.45,1.45,0,0,1,.36,0,1.14,1.14,0,0,1,.26,0s0,0,0,0v-1.65h0a1.87,1.87,0,0,1,.34,0H116s0,0,0,0Z" style="fill:#455a64"></path><path d="M119.63,317.68h0l-.08-.05-.31-.31a3.41,3.41,0,0,1-.36-.57,3,3,0,0,1-.22-.64l-.06-.24h0v0H119s0,0,0,0a2.07,2.07,0,0,0,0,.35,2.66,2.66,0,0,0,.12.56,3.8,3.8,0,0,0,.18.47l.08.15h0a2.88,2.88,0,0,0,.18.28h0Z" style="fill:#263238"></path><path d="M121.31,318.28v.42h0l-.3-.07a3.07,3.07,0,0,1-.5-.2,2.66,2.66,0,0,1-.45-.29l-.21-.19,0,0a2,2,0,0,1-.19-.24h0l.1.07h0a1.87,1.87,0,0,0,.39.22,1.53,1.53,0,0,0,.27.11,3,3,0,0,0,.52.13l.36,0S121.31,318.26,121.31,318.28Z" style="fill:#FFC840"></path></g><path d="M127.93,339.19a5.45,5.45,0,1,1-5.45-5.45A5.46,5.46,0,0,1,127.93,339.19Z" style="fill:#455a64"></path><g id="freepik--xsrjP0--inject-20"><path d="M121.65,341.61c-.16-.1-.3-.25-.52-.23s-.07-.06-.07-.1c0-.82,0-1.64,0-2.46a.14.14,0,0,1,.07-.14c.62-.31.89-.94,1.28-1.47a2.46,2.46,0,0,0,.44-1.86c0-.18.06-.26.23-.3a.4.4,0,0,1,.46.14,3.46,3.46,0,0,1,.37,1.08,4.15,4.15,0,0,1-.12.92c0,.22-.08.44-.12.67.06,0,.12,0,.18,0h2.07c.3,0,.44.09.48.28a.56.56,0,0,1-.3.6s-.14,0-.15.08.09.08.14.11c.25.17.2.53-.09.73-.07.05-.2,0-.2.13s.12.08.18.14a.47.47,0,0,1-.2.72s-.09,0-.12,0-.07.05,0,.09a.41.41,0,0,1,0,.73l-.09.07a.58.58,0,0,1-.36.08h-3.25A.38.38,0,0,1,121.65,341.61Z" style="fill:#fff;fill-rule:evenodd"></path><path d="M118.56,340.18v-1.56c0-.11,0-.16.14-.16.63,0,1.26,0,1.9,0,.12,0,.14,0,.14.15,0,1.05,0,2.09,0,3.14,0,.13,0,.17-.17.17h-1.84c-.15,0-.17-.05-.17-.18C118.57,341.22,118.57,340.7,118.56,340.18Z" style="fill:#fff;fill-rule:evenodd"></path></g><path d="M95.52,364s-14.66,2.36-20.83-12.43C74.69,351.53,89.49,350.48,95.52,364Z" style="fill:#37474f"></path><path d="M106.65,390.63s-3.09,14.52-19.11,14.94C87.54,405.57,91.9,391.39,106.65,390.63Z" style="fill:#37474f"></path><path d="M94.63,367.39a13.61,13.61,0,0,1-15.95,5.14S84.88,364.37,94.63,367.39Z" style="fill:#37474f"></path><path d="M139.89,375.12a13.61,13.61,0,0,1-15.2-7.06S134.78,366.28,139.89,375.12Z" style="fill:#37474f"></path><path d="M109,333.23a13.59,13.59,0,0,1-11.1-12.55S107.85,323.09,109,333.23Z" style="fill:#37474f"></path><path d="M131,437.82c-12.5.35-25,.39-37.52.39s-25.07.41-37.52-.49a.17.17,0,0,1,0-.34c1.14-.08,2.28-.14,3.41-.2,3-2.55,7.27-4.68,10.59-2.09,1.11-3.64,5-4.45,8.66-4.23-2.13-4.78,1.57-10,6.72-10.78s11.25,2.22,12.31,7.57c2.2-.66,4.06.42,5.74,2,2.54-2.71,6.09.4,7.64,3.42a5.72,5.72,0,0,1,4-.88,3.78,3.78,0,0,1,1.77.81c.43.35.87,1.53,1.29,1.63a19.81,19.81,0,0,0,2.42-.7,5.48,5.48,0,0,1,2.94.46,4.49,4.49,0,0,1,2.42,2.77l5.18.11A.27.27,0,0,1,131,437.82Z" style="fill:#37474f"></path><path d="M227.09,437.74c-17.55.88-35.31.35-52.9.45s-35.26.29-52.89-.36a.26.26,0,0,1,0-.51c.86,0,1.73-.07,2.58-.09a8.85,8.85,0,0,1,5.69-3.16c.72-.1,2.49.36,3,0s.33-.59.69-1.29c2.26-4.43,6.74-4.22,11-3.25-2.31-5.75,2.44-11.37,8.17-12.64a13.44,13.44,0,0,1,15.29,8.3,9.54,9.54,0,0,1,9.54-.86c1.69.79,2,1.74,3.86,1.34a13.38,13.38,0,0,1,5.12-.45A11.33,11.33,0,0,1,191,427.2c1,.74,1.94,2.34,3,2.69,1.3.45,2.4-.34,3.75.72a4.1,4.1,0,0,1,1.55,3.37c3.84-1.22,7-.45,10.63,1.17,1.78.79,3.3-.17,5.2.19a7.17,7.17,0,0,1,3.41,1.71l0,0c2.83.08,5.67.17,8.5.31A.18.18,0,0,1,227.09,437.74Z" style="fill:#455a64"></path></g><g id="freepik--Sun--inject-20"><circle cx="179.4" cy="124.04" r="25.44" transform="translate(-35.17 163.18) rotate(-45)" style="fill:#FFC840;opacity:0.5"></circle><circle cx="179.4" cy="124.04" r="18.33" style="fill:#FFC840"></circle></g><g id="freepik--Character--inject-20"><path d="M250.44,437.73c2.46.82,72.71.61,75.39-1.09,1-.63,1.58-10.87,1.91-23.26.08-2.67.13-5.42.18-8.24.05-3.32.09-6.69.11-9.95.09-14.68-.11-27.6-.11-27.6H282.18l0,27.6v9.95l.24,8.24s-26.86,12.12-29.59,14.3S248,436.92,250.44,437.73Z" style="fill:#dd6a57"></path><path d="M250.44,437.73c2.46.82,72.71.61,75.39-1.09,1-.63,1.58-10.87,1.91-23.26.08-2.67.13-5.42.18-8.24.05-3.32.09-6.69.11-9.95H282.2v9.95l.24,8.24s-26.86,12.12-29.59,14.3S248,436.92,250.44,437.73Z" style="fill:#fff"></path><path d="M250.23,437.83c1.6.53,31.52.64,53.31.19,5-.11,9.65-.25,13.37-.41,5.13-.24,8.57-.52,9.13-.87,1.23-.8,1.83-15.82,2.11-31.68h-46l.24,8.29s-27,12.18-29.76,14.37S247.77,437,250.23,437.83Z" style="fill:#FFC840"></path><path d="M251.23,435c11.85-.33,59.64-.52,71.37.06.09,0,.09.07,0,.07-11.73.58-59.52.39-71.37.06C251,435.19,251,435,251.23,435Z" style="fill:#263238"></path><path d="M280.74,410.72c4.66-.88,10.36-.18,13.93,3.13.14.13-.05.32-.2.28a65.35,65.35,0,0,0-13.71-2.82A.3.3,0,0,1,280.74,410.72Z" style="fill:#263238"></path><path d="M277.38,412.76c4.66-.88,10.36-.18,13.93,3.13.14.13,0,.32-.2.27a65.84,65.84,0,0,0-13.71-2.81A.3.3,0,0,1,277.38,412.76Z" style="fill:#263238"></path><path d="M274,414.8c4.66-.88,10.36-.19,13.93,3.12.14.13,0,.33-.19.28A65.42,65.42,0,0,0,274,415.39.3.3,0,0,1,274,414.8Z" style="fill:#263238"></path><path d="M270.67,416.84c4.65-.89,10.36-.19,13.93,3.12.13.13-.05.32-.2.28a65.35,65.35,0,0,0-13.71-2.82A.29.29,0,0,1,270.67,416.84Z" style="fill:#263238"></path><path d="M274.21,406.6c3.3,2.56,7.6,3.59,11.45,5a.59.59,0,0,0,.73-.59.13.13,0,0,0,.11-.17,24.85,24.85,0,0,0-7.21-10.65c-2-1.63-5.36-2.75-7.19-.23S272.28,405.11,274.21,406.6Zm-1.2-3.74c-.83-5.11,4.66-2.44,6.05-1.19a26,26,0,0,1,2.48,2.66c1.62,1.94,2.93,4.06,4.35,6.13-1.85-.81-3.76-1.45-5.63-2.19C278,407.38,273.47,405.68,273,402.86Z" style="fill:#263238"></path><path d="M302,403.71c-1.13-2.91-4.72-2.67-7-1.58a24.85,24.85,0,0,0-9.64,8.52.12.12,0,0,0,.06.19c-.07.35.14.79.56.75,4.09-.41,8.5-.34,12.34-2C300.58,408.64,303.11,406.45,302,403.71Zm-10,6c-2,.25-4,.4-6,.73a72.21,72.21,0,0,1,5.74-4.86,26.89,26.89,0,0,1,3.06-1.95c1.66-.87,7.65-2.09,5.56,2.65C299.28,408.89,294.45,409.41,292.07,409.7Z" style="fill:#263238"></path><path d="M343.17,172.69S330.81,295,330.52,296.49c0,.21-.13,2.56-.25,6.4-.66,21.05-2.31,86.67-2.31,86.67H277.53s3.29-77.73,5.18-95.86c2.41-23.13,17.58-121,17.58-121Z" style="fill:#37474f"></path><path d="M324.51,300.8q2.33-39.72,7-79.28c1.77-14.85,3.9-29.65,6-44.46,0-.13.22-.12.2,0-3.9,26.35-6.66,52.91-9,79.44s-4.05,53.05-5.13,79.63c-.62,15.07-1.08,30.13-1.57,45.2a.28.28,0,0,1-.55,0C322.16,354.48,322.93,327.62,324.51,300.8Z" style="fill:#263238"></path><path d="M280.71,381.43c1.32-.17,2.76-.12,4.1-.17,1.51-.05,3-.06,4.54-.12,2.92-.11,5.84-.18,8.77-.23q8.82-.15,17.67.12l4.86.17c1.72.07,3.45.23,5.18.22.13,0,.12.15,0,.15-3,0-6,.26-8.93.37s-5.84.15-8.76.19c-5.88.09-11.79,0-17.67-.18-1.62-.06-3.24-.08-4.86-.13l-2.59-.11c-.77,0-1.54,0-2.3-.08A.1.1,0,1,1,280.71,381.43Z" style="fill:#263238"></path><path d="M343.17,172.69S330.81,295,330.52,296.49c0,.21-.13,2.56-.25,6.4L306.5,172.69Z" style="fill:#263238"></path><path d="M381.34,435.55c2.58-.27,66.49-29.44,68.22-32.1.66-1-3.05-10.56-7.85-22-1-2.47-2-5.07-3.24-7.58-1.55-3.17-3.13-6.32-4.69-9.34-6.75-13.13-12.94-23.9-12.94-23.9L380.35,359l11.7,23.93,4.79,9.82,3.61,7.41S381,422.28,379.39,425.39,378.77,435.82,381.34,435.55Z" style="fill:#dd6a57"></path><path d="M381.34,435.55c2.58-.27,66.49-29.44,68.22-32.1.66-1-3.05-10.56-7.85-22-1-2.47-2-5.07-3.24-7.58-1.55-3.17-3.13-6.32-4.69-9.34-12.5,5.59-30.52,13.48-41.73,18.37l4.79,9.82,3.61,7.41S381,422.28,379.39,425.39,378.77,435.82,381.34,435.55Z" style="fill:#fff"></path><path d="M381.19,435.73c2.58-.27,66.85-29.61,68.6-32.27.8-1.24-4.86-15.17-11.15-29.73l-41.87,19,3.63,7.46s-19.58,22.23-21.18,25.36S378.6,436,381.19,435.73Z" style="fill:#FFC840"></path><path d="M380.93,432.74c10.66-5.18,54.11-25.08,65-29.39.09,0,.12,0,0,.07-10.45,5.36-54.06,24.91-65,29.49C380.78,433,380.71,432.85,380.93,432.74Z" style="fill:#263238"></path><path d="M397.79,398.45c3.88-2.73,9.36-4.45,14-2.9.18.06.09.31-.06.33A65.83,65.83,0,0,0,398.06,399,.3.3,0,0,1,397.79,398.45Z" style="fill:#263238"></path><path d="M395.58,401.69c3.87-2.73,9.36-4.44,14-2.9.18.06.1.31-.06.33a65.83,65.83,0,0,0-13.65,3.09A.29.29,0,0,1,395.58,401.69Z" style="fill:#263238"></path><path d="M393.36,404.93c3.88-2.73,9.36-4.44,14-2.9.17.06.09.31-.07.33a65.36,65.36,0,0,0-13.65,3.1A.3.3,0,0,1,393.36,404.93Z" style="fill:#263238"></path><path d="M391.14,408.17c3.88-2.73,9.36-4.44,14-2.9.18.06.09.31-.07.33a65.5,65.5,0,0,0-13.65,3.1A.3.3,0,0,1,391.14,408.17Z" style="fill:#263238"></path><path d="M390.14,397.39c4.07,1,8.41.13,12.5-.17a.58.58,0,0,0,.42-.83c.06-.05.1-.13,0-.2a24.83,24.83,0,0,0-11-6.73c-2.45-.68-6-.3-6.64,2.76C384.9,395.11,387.77,396.82,390.14,397.39Zm-2.63-2.92c-2.87-4.31,3.24-4.15,5-3.58a26,26,0,0,1,3.36,1.41,73.56,73.56,0,0,1,6.48,3.79c-2,0-4,.22-6,.32C393.94,396.53,389.09,396.84,387.51,394.47Z" style="fill:#263238"></path><path d="M414.3,383.27c-2.24-2.18-5.4-.48-7.05,1.46A24.88,24.88,0,0,0,402,396.46c0,.1.06.15.14.15a.57.57,0,0,0,.81.45c3.55-2.06,7.61-3.81,10.42-6.9C415,388.36,416.41,385.33,414.3,383.27Zm-6.61,9.57c-1.72,1.06-3.48,2-5.17,3.14,1-2.29,2-4.61,3.23-6.79a26.51,26.51,0,0,1,2-3.05c1.15-1.48,6.11-5.05,6.17.13C413.93,389.12,409.74,391.59,407.69,392.84Z" style="fill:#263238"></path><path d="M300.29,172.69s3.33,17.66,15.65,26.64c0,0,27.16,90.91,30.69,101.34,6.09,18,38.78,78.81,38.78,78.81l50.47-21.66s-38.49-67.79-42.65-73c-2.76-3.46-23.49-77.16-23.23-79.06,3-22.59-7.69-33.16-7.69-33.16Z" style="fill:#37474f"></path><path d="M341.12,179.09A16.83,16.83,0,0,0,347.3,188a20.75,20.75,0,0,0,11.2,3.84c.68.06.74,1.08,0,1.09-8.22,0-16.53-5.21-17.73-13.74C340.76,179,341.08,178.91,341.12,179.09Z" style="fill:#263238"></path><path d="M308.05,193.74a45.16,45.16,0,0,1,8.49,4.51c2.83,1.74,5.43,3.79,8.16,5.68.1.07,0,.24-.1.17-2.86-1.64-5.83-3.07-8.66-4.77a53.42,53.42,0,0,1-8-5.37C307.83,193.88,307.92,193.69,308.05,193.74Z" style="fill:#263238"></path><path d="M306.89,176.6c.44,1.88,1,3.74,1.48,5.61s.83,3.55,1.38,5.28a9.09,9.09,0,0,0,2.69,4.35c.72.62,1.52,1.15,2.28,1.71.42.3.86.59,1.29.89-.06-.25-.12-.5-.17-.76-.16-.71-.32-1.43-.47-2.14q-.51-2.39-1-4.77c-.63-3.13-1.22-6.3-2-9.39a.11.11,0,0,1,.2-.06c.92,3.06,1.93,6.08,2.76,9.17.4,1.51,1.94,9,2,9.54s.15,1.1.2,1.66a6.85,6.85,0,0,1,.08,1.69c0,.14-.2.12-.26,0h0a6.88,6.88,0,0,1-.55-1.62c-.17-.53-.31-1.07-.43-1.62-.05-.19-.08-.39-.12-.59-.77-.42-1.49-1-2.2-1.46s-1.57-1-2.3-1.57a8.56,8.56,0,0,1-2.91-4.11,30.73,30.73,0,0,1-1.13-5.39c-.34-2.13-.62-4.28-1-6.41C306.67,176.53,306.86,176.47,306.89,176.6Z" style="fill:#263238"></path><path d="M385.27,369.29c1.14-.69,13.08-6.25,15.73-7.46,5.36-2.46,23.85-10,25.59-10.67.57-.21.61.11.17.32-2.73,1.33-13.43,6.24-16.09,7.45-5.36,2.44-24.58,10.33-25.32,10.55A.1.1,0,0,1,385.27,369.29Z" style="fill:#263238"></path><path d="M359,174.77a40.26,40.26,0,0,1,5.1,10.71A40.79,40.79,0,0,1,366,197.25a36.26,36.26,0,0,1-.43,6c-.09.49-.15,1-.26,1.48l-.15.73a1.87,1.87,0,0,0-.09.63c.12.91.36,1.9.58,2.86.91,3.84,1.92,7.67,2.94,11.5,4.11,15.31,8.27,30.6,12.65,45.83l3.3,11.42c.56,1.89,1.13,3.79,1.73,5.67.3.93.61,1.89,1,2.75s.83,1.74,1.32,2.61c3.73,7,7.76,13.8,11.66,20.69,0,0,19.89,33.41,24,41.11.19.36.09.59-.28.11-3.55-4.63-16.51-27.07-24.58-40.71-4.05-6.82-8-13.67-11.85-20.64-.48-.86-.92-1.79-1.37-2.69s-.7-1.91-1-2.86c-.61-1.89-1.19-3.79-1.77-5.69q-1.71-5.7-3.34-11.41c-4.26-15.28-8.48-30.56-12.34-46-.95-3.84-1.91-7.69-2.77-11.57-.2-1-.42-1.92-.54-3a2.44,2.44,0,0,1,.11-.84l.16-.71c.12-.48.18-1,.27-1.45a38.45,38.45,0,0,0,.53-5.86A42,42,0,0,0,359,174.77Z" style="fill:#263238"></path><path d="M310.35,118.39a.1.1,0,0,0,.19,0c1.56-5.6,8-8,9.29-13.78a13.89,13.89,0,0,0-.77-7.65,39.86,39.86,0,0,0-2.28-4.58l-.3-.74a27.6,27.6,0,0,1-1.58-4.78,16.53,16.53,0,0,1,0-5.7c.52-3.62,1.29-7.25-.49-10.67a16,16,0,0,0-6.94-6.42c-6.36-3.32-14.7-4.13-20.62.56a12.61,12.61,0,0,0-2.69,2.91,15.38,15.38,0,0,0-7,6.2c-2,3.8-.16,7.8-.92,9.77-.66,1.73-2.12,3-3.25,4.41a31.65,31.65,0,0,0-3,3.72,11.26,11.26,0,0,0-1.72,6.27,12.31,12.31,0,0,0,1.26,5.79,10.09,10.09,0,0,0,4,3.9l1.19.67,0,0c1.29,1.19,2.75,2.2,3.94,3.5a7.92,7.92,0,0,1,2.05,5.2c.07,1.79-.2,3.58-.25,5.37a12.92,12.92,0,0,0,.77,4.89,15,15,0,0,0,6.24,7.37,22.78,22.78,0,0,0,10.9,3.12c3.42.16,6.84-.49,9.38-2.93a10.76,10.76,0,0,0,3.33-8.17,29.71,29.71,0,0,0-1.21-5.36A8.67,8.67,0,0,1,310,116c2.2-5.64,8.92-8.75,9-15.35a14.65,14.65,0,0,0-.93-4.93,14.69,14.69,0,0,1,1.51,7.89c-.34,3-2.05,5.34-4.11,7.48S311.05,115.38,310.35,118.39Zm-36.56-10.91a9.88,9.88,0,0,1-4.71-5.87,13.38,13.38,0,0,1,.42-8.48,15.13,15.13,0,0,1,2.32-3.45l.07-.09a13.9,13.9,0,0,0-1.11,2.49,16.05,16.05,0,0,0-.43,8.61,14.83,14.83,0,0,0,3.54,6.85Z" style="fill:#263238"></path><path d="M309.92,113.56c3.77,12.62-4.92,57.69-12.9,66.88-11.87,13.65-30.95,21.63-39.56,25.28-3.75,1.6-18.53-24.79-14.55-26.56,8.72-3.88,29-13.46,31.25-15.85s14.65-25.85,19.83-39.13C301,106.35,308,107.18,309.92,113.56Z" style="fill:#dd6a57"></path><path d="M256.1,205c-2.62,1.66-15.31,8.19-19.24,9.22s-15.48,3.16-16.58.22,2.24-3.83,2.24-3.83-5,.13-5.85-2.92,4.4-4.28,4.4-4.28-5.17-.24-5.78-3.35,4.85-3.45,4.85-3.45-4.73,0-4.15-2.77c.69-3.34,9.41-2.35,13.67-3.81,1-.33,19.13-8.12,19.13-8.12Z" style="fill:#dd6a57"></path><path d="M219.68,196.68c6.41.71,9.34-.09,15-2.87.11-.05.22.1.11.17-5.35,3.23-8.88,4.76-15.22,3C219.31,196.9,219.37,196.64,219.68,196.68Z" style="fill:#263238"></path><path d="M220.56,203.38c6.72.15,9.91-.68,16.11-3.15.08,0,.15.11.07.15-5.88,2.93-9.44,4.38-16.14,3.34C220.3,203.67,220.25,203.37,220.56,203.38Z" style="fill:#263238"></path><path d="M222.83,210.51c6.52-.32,10.06-1.09,15.76-4.26.14-.07.26.12.13.2-5.5,3.8-9.9,4.79-15.86,4.25C222.46,210.67,222.42,210.53,222.83,210.51Z" style="fill:#263238"></path><path d="M250.08,175.86s-8.09.06-11.63.87-15.66,8.69-14.1,11.4c2,3.51,9.89.33,13.55-1.73,0,0,4.63,8.1,10.78,7S250.08,175.86,250.08,175.86Z" style="fill:#dd6a57"></path><path d="M225.22,188.92c4.13,1.87,8.76-1.14,12.45-2.88a.38.38,0,0,1,.55.29c2.17,3.26,6.18,7.24,10.31,7.33a.1.1,0,0,1,0,.19c-4.45.5-8.71-3.08-10.86-6.81-3.76,1.83-8.54,4.65-12.49,1.92C225.17,188.94,225.19,188.9,225.22,188.92Z" style="fill:#263238"></path><path d="M313.89,115c1.42,11.71-4.68,38.17-4.68,38.17l-6.73-3.11-22.24-10.24s11.05-18,19.21-28.86a29.5,29.5,0,0,1,3.15-3.62C308.69,101.43,312.68,104.91,313.89,115Z" style="fill:#FFC840"></path><path d="M297.28,129.67s1.89,1.29,1,2.32-2-.87-2-1.66c0,0-1.06,1.62-1.77.85s.59-1.54,1.14-1.69c0,0-1.53-1.17-.61-1.93s1.6.46,1.58,1.25a2.64,2.64,0,0,1,.63-.75c.47-.36,1.14-.55,1.55,0C299.41,128.92,298.07,129.78,297.28,129.67Zm15.37,1.51a.61.61,0,0,0,.49.21c.07-.58.15-1.15.22-1.72C312.77,130,312.09,130.57,312.65,131.18Zm.53-3.62c-.6.5-.14,1.18.24,1.58.07-.6.13-1.2.2-1.79A.93.93,0,0,0,313.18,127.56Zm-10-10.72c-.12.7.48,1,1.07,1.11a2.5,2.5,0,0,0,1-.08c-.56.54-.86,1.91.24,2s.93-1.8.93-1.8c.5.29,2,.68,2-.39s-1.86-.66-1.86-.66c.55-.56,1.14-2.66-.21-2.56s-.94,2.35-.94,2.35C304.93,116.18,303.38,115.84,303.21,116.84Zm-14.83,25.63c.55-.56,1.15-2.66-.21-2.56s-.94,2.35-.94,2.35c-.44-.58-1.78-.92-2.13-.21l3.65,1.68h0c.62.17,1.43.18,1.46-.61C290.28,142.08,288.38,142.47,288.38,142.47Zm14.83-.19c-.12.7.48,1,1.07,1.11a2.5,2.5,0,0,0,1-.08c-.56.54-.86,1.91.24,2s.93-1.8.93-1.8c.5.29,2,.68,2-.39s-1.86-.66-1.86-.66c.55-.56,1.14-2.66-.21-2.56s-.94,2.35-.94,2.35C304.93,141.62,303.38,141.28,303.21,142.28Z" style="fill:#fff"></path><path d="M309.24,147.15c-3.95-2-20.43-9.61-24.1-11-.26-.09-.38,0-.13.18,11.69,6.27,20.16,9.22,24.14,11C309.25,147.35,309.34,147.2,309.24,147.15Z" style="fill:#263238"></path><path d="M309.2,153.15l-6.72-3.1-18.14-8.35,20.77-36.35h0c4.67-2.76,7.73,1,8.77,9.65C315.31,126.7,309.2,153.15,309.2,153.15Z" style="opacity:0.1"></path><path d="M298.37,153.48l1.92,19.21,62-.11s-22-57.93-39.95-68.69c-9-5.38-16.8-2.48-20.37,4.19-.9,1.68-12.55,24.21-11.88,32.45C290.71,147.79,298.37,153.48,298.37,153.48Z" style="fill:#FFC840"></path><path d="M315.4,104.23s1.88,1.29,1,2.32-1.95-.87-2-1.66c0,0-1.06,1.62-1.78.85s.59-1.55,1.15-1.69c0,0-1.53-1.17-.62-1.93s1.61.46,1.59,1.24a2.67,2.67,0,0,1,.63-.74c.47-.36,1.13-.55,1.55,0C317.53,103.48,316.19,104.34,315.4,104.23ZM298.83,128.1c-.41-.59-1.08-.4-1.55,0a2.64,2.64,0,0,0-.63.75c0-.79-.74-2-1.58-1.25s.61,1.93.61,1.93c-.55.15-1.87.91-1.14,1.69s1.77-.85,1.77-.85c0,.79,1.08,2.69,2,1.66s-1-2.32-1-2.32C298.07,129.78,299.41,128.92,298.83,128.1Zm18.12,0c-.42-.59-1.08-.4-1.55,0a2.64,2.64,0,0,0-.63.75c0-.79-.74-2-1.59-1.25s.62,1.93.62,1.93c-.56.15-1.87.91-1.15,1.69s1.78-.85,1.78-.85c0,.79,1.07,2.69,2,1.66s-1-2.32-1-2.32C316.19,129.78,317.53,128.92,317,128.1Zm18.11,0c-.41-.59-1.07-.4-1.54,0a2.64,2.64,0,0,0-.63.75c0-.79-.74-2-1.59-1.25s.62,1.93.62,1.93c-.56.15-1.88.91-1.15,1.69s1.78-.85,1.78-.85c0,.79,1.07,2.69,2,1.66s-1-2.32-1-2.32C334.31,129.78,335.65,128.92,335.06,128.1Zm-31.85-11.26c-.12.7.48,1,1.07,1.11a2.5,2.5,0,0,0,1-.08c-.56.54-.86,1.91.24,2s.93-1.8.93-1.8c.5.29,2,.68,2-.39s-1.86-.66-1.86-.66c.55-.56,1.14-2.66-.21-2.56s-.94,2.35-.94,2.35C304.93,116.18,303.38,115.84,303.21,116.84Zm18.19,0c-.12.7.48,1,1.07,1.11a2.5,2.5,0,0,0,1-.08c-.57.54-.86,1.91.24,2s.93-1.8.93-1.8c.49.29,2,.68,2-.39s-1.86-.66-1.86-.66c.55-.56,1.14-2.66-.22-2.56s-.93,2.35-.93,2.35C323.12,116.18,321.57,115.84,321.4,116.84Zm-22.57,36.7a.82.82,0,0,0-.84-.36c.24.2.38.3.38.3l.12,1.25C298.9,154.43,299.14,154,298.83,153.54Zm18.12,0c-.42-.59-1.08-.4-1.55,0a2.64,2.64,0,0,0-.63.75c0-.78-.74-2-1.59-1.25s.62,1.93.62,1.93c-.56.15-1.87.91-1.15,1.69s1.78-.84,1.78-.84c0,.78,1.07,2.68,2,1.65s-1-2.32-1-2.32C316.19,155.22,317.53,154.36,317,153.54Zm18.11,0c-.41-.59-1.07-.4-1.54,0a2.64,2.64,0,0,0-.63.75c0-.78-.74-2-1.59-1.25s.62,1.93.62,1.93c-.56.15-1.88.91-1.15,1.69s1.78-.84,1.78-.84c0,.78,1.07,2.68,2,1.65s-1-2.32-1-2.32C334.31,155.22,335.65,154.36,335.06,153.54Zm18.12,0c-.41-.59-1.08-.4-1.55,0a2.64,2.64,0,0,0-.63.75c0-.78-.74-2-1.58-1.25s.61,1.93.61,1.93c-.55.15-1.87.91-1.14,1.69s1.77-.84,1.77-.84c0,.78,1.08,2.68,2,1.65s-1-2.32-1-2.32C352.42,155.22,353.76,154.36,353.18,153.54Zm-50-11.26c-.12.7.48,1,1.07,1.11a2.5,2.5,0,0,0,1-.08c-.56.54-.86,1.91.24,2s.93-1.8.93-1.8c.5.29,2,.68,2-.39s-1.86-.66-1.86-.66c.55-.56,1.14-2.66-.21-2.56s-.94,2.35-.94,2.35C304.93,141.62,303.38,141.28,303.21,142.28Zm18.19,0c-.12.7.48,1,1.07,1.11a2.5,2.5,0,0,0,1-.08c-.57.54-.86,1.91.24,2s.93-1.8.93-1.8c.49.29,2,.68,2-.39s-1.86-.66-1.86-.66c.55-.56,1.14-2.66-.22-2.56s-.93,2.35-.93,2.35C323.12,141.62,321.57,141.28,321.4,142.28Zm18.19,0c-.12.7.48,1,1.06,1.11a2.57,2.57,0,0,0,1-.08c-.57.54-.86,1.91.24,2s.93-1.8.93-1.8c.49.29,2,.68,2-.39s-1.85-.66-1.85-.66c.54-.56,1.14-2.66-.22-2.56s-.94,2.35-.94,2.35C341.31,141.62,339.76,141.28,339.59,142.28Zm-36.38,25.44c-.12.7.48,1,1.07,1.11a2.5,2.5,0,0,0,1-.08c-.56.55-.86,1.91.24,2s.93-1.8.93-1.8c.5.29,2,.68,2-.39s-1.86-.66-1.86-.66c.55-.56,1.14-2.66-.21-2.56s-.94,2.35-.94,2.35C304.93,167.06,303.38,166.72,303.21,167.72Zm18.19,0c-.12.7.48,1,1.07,1.11a2.5,2.5,0,0,0,1-.08c-.57.55-.86,1.91.24,2s.93-1.8.93-1.8c.49.29,2,.68,2-.39s-1.86-.66-1.86-.66c.55-.56,1.14-2.66-.22-2.56s-.93,2.35-.93,2.35C323.12,167.06,321.57,166.72,321.4,167.72Zm18.19,0c-.12.7.48,1,1.06,1.11a2.57,2.57,0,0,0,1-.08c-.57.55-.86,1.91.24,2s.93-1.8.93-1.8c.49.29,2,.68,2-.39s-1.85-.66-1.85-.66c.54-.56,1.14-2.66-.22-2.56s-.94,2.35-.94,2.35C341.31,167.06,339.76,166.72,339.59,167.72ZM361,169.24h0l-1.06-2.61a4.12,4.12,0,0,0,0,1.08c-.48-.64-2-1-2.21,0-.12.7.49,1,1.07,1.11a2.75,2.75,0,0,0,1-.07c-.55.55-.83,1.9.25,2C360.94,170.84,361,169.77,361,169.24Z" style="fill:#fff"></path><path d="M314.93,149.73a51,51,0,0,0-7.25,1.3c-1.18.32-2.33.7-3.49,1.1-.57.2-1.15.38-1.73.55a8,8,0,0,1-1.87.38,0,0,0,0,0,0,.09,13.48,13.48,0,0,0,1.8-.06,12.48,12.48,0,0,0,1.72-.35c1.2-.31,2.38-.68,3.58-1,2.41-.66,4.82-1.32,7.28-1.8C315.08,149.91,315.05,149.71,314.93,149.73Z" style="fill:#263238"></path><path d="M321,151.8a56.06,56.06,0,0,0-6.08-.2c-1,0-2,.12-3,.23-.48,0-1,.12-1.44.19s-1.05.22-1.58.29c-.05,0-.05.09,0,.08.5,0,1,0,1.51,0l1.52-.06,3-.12c2-.1,4-.18,6.06-.21C321.13,152,321.12,151.81,321,151.8Z" style="fill:#263238"></path><path d="M313.05,104.71c.1,1.14-2.67,9.72-7.6,11.11-1.6.45-4.45-8.2-4.45-8.2l-.35-.6-5-8.27,8.26-10.24,1.22-1.39s1.21,2.35,2.69,5.3q.11.19.21.42c.09.16.18.31.25.47.23.44.46.89.68,1.34s.33.67.49,1,.34.71.51,1.08A61.82,61.82,0,0,1,313.05,104.71Z" style="fill:#dd6a57"></path><path d="M307.84,92.42a19.36,19.36,0,0,1-7.19,14.6l-5-8.27,8.26-10.24,1.22-1.39S306.36,89.47,307.84,92.42Z" style="fill:#263238"></path><path d="M278.74,88.52c3.87,16.49,14.19,16,17.75,15.2,3.23-.77,14.12-3.77,12-20.58S297.42,62.92,290,64.27,274.87,72,278.74,88.52Z" style="fill:#dd6a57"></path><path d="M280.42,84.93a11.44,11.44,0,0,0,1-.57,1.88,1.88,0,0,0,.93-.78.6.6,0,0,0-.22-.7,1.49,1.49,0,0,0-1.51.1,2.22,2.22,0,0,0-1.09,1.15A.65.65,0,0,0,280.42,84.93Z" style="fill:#263238"></path><path d="M291.32,82c-.4.07-.77.07-1.17.11a1.93,1.93,0,0,1-1.21-.12.59.59,0,0,1-.21-.7,1.48,1.48,0,0,1,1.3-.77,2.23,2.23,0,0,1,1.55.33A.65.65,0,0,1,291.32,82Z" style="fill:#263238"></path><path d="M290.06,86.33s.11,0,.12.08c.28,1.11.79,2.35,1.9,2.43,0,0,0,.06,0,.07C290.81,89.08,290.15,87.44,290.06,86.33Z" style="fill:#263238"></path><path d="M290.73,84.89c1.74-.64,2.9,2.9,1.28,3.49S289.26,85.43,290.73,84.89Z" style="fill:#263238"></path><path d="M291.48,84.85c.38.1.8.35,1.18.27s.65-.58.81-1c0,0,.06,0,.08,0a1.36,1.36,0,0,1-.5,1.8c-.63.31-1.3-.14-1.7-.76C291.28,85,291.33,84.81,291.48,84.85Z" style="fill:#263238"></path><path d="M283.83,87.92s-.07.08-.05.12c.4,1.09.68,2.39-.19,3.09,0,0,0,.07,0,.06C284.77,90.61,284.38,88.88,283.83,87.92Z" style="fill:#263238"></path><path d="M282.47,87.1c-1.8.46-.76,4,.91,3.61S284,86.72,282.47,87.1Z" style="fill:#263238"></path><path d="M281.79,87.56c-.22.27-.4.7-.73.82s-.79-.16-1.15-.46c0,0-.05,0,0,0,.18.69.61,1.34,1.31,1.28s.9-.77.86-1.5C282,87.61,281.88,87.45,281.79,87.56Z" style="fill:#263238"></path><path d="M293.08,94.76c-.17.35-.29.8-.67,1a3,3,0,0,1-1.26.16,0,0,0,0,0,0,.08,1.54,1.54,0,0,0,1.59.06,1.22,1.22,0,0,0,.49-1.27C293.19,94.7,293.1,94.71,293.08,94.76Z" style="fill:#263238"></path><path d="M287.22,92.23s.29,1.71.54,2.49c0,.07.22,0,.49,0h0a3.89,3.89,0,0,0,3.15-2.5c0-.09-.1-.14-.15-.07a5.84,5.84,0,0,1-3.07,2c-.12-.2-.39-3-.52-2.93a7,7,0,0,0-1.64,1c-.7-3.56-.83-7.2-1.59-10.73,0-.12-.22-.11-.22,0a58.56,58.56,0,0,0,1.23,11.63C285.54,93.54,287,92.46,287.22,92.23Z" style="fill:#263238"></path><path d="M288.12,94.08a4.77,4.77,0,0,0,2.14,1.09,2.13,2.13,0,0,0,1.28-.17c.87-.42.74-1.26.43-2a5.16,5.16,0,0,0-.62-1A6.09,6.09,0,0,1,288.12,94.08Z" style="fill:#263238"></path><path d="M290.26,95.17a2.13,2.13,0,0,0,1.28-.17c.87-.42.74-1.26.43-2A2.19,2.19,0,0,0,290.26,95.17Z" style="fill:#ff9abb"></path><path d="M279.74,68.12S289.85,57,300.13,61.27s8,18.19,8,18.19-2.9-15-11.29-15.94S279.74,68.12,279.74,68.12Z" style="fill:#FFC840"></path><path d="M308.38,83.33a6.91,6.91,0,0,1-5.67-3.8,18.11,18.11,0,0,1-9-2.78c.24.28,1.91,2.29,2.8,3.3-10.62,2.08-16.68-4.27-16.68-4.27a18.22,18.22,0,0,0-1.82,8s-2.48-6-1-11.33c1.84-6.49,14.19-13,22.73-8.84C308.94,68,308.38,83.33,308.38,83.33Z" style="fill:#263238"></path><path d="M288.33,81.4a19.44,19.44,0,0,0,5.8-.16s0,0,0,0a16.71,16.71,0,0,1-9-1.5,16.36,16.36,0,0,1-3.32-2.14A10.77,10.77,0,0,1,279,74.34c0-.1-.19,0-.14.07A12.48,12.48,0,0,0,281.19,78a11.63,11.63,0,0,0,3.49,2.4,13.56,13.56,0,0,0,3.65,1" style="fill:#263238"></path><path d="M305.56,83.69s1.86-6.18,4.55-5.68,2.44,8.66.09,10.54a2.86,2.86,0,0,1-4.12-.27Z" style="fill:#dd6a57"></path><path d="M310,80.35s.07,0,0,.07c-1.63,1.37-2,3.44-2.14,5.47A1.58,1.58,0,0,1,310,84.74c.06,0,0,.11,0,.12a1.76,1.76,0,0,0-1.65,1.19,8.82,8.82,0,0,0-.39,1.78c0,.19-.37.2-.37,0v0C306.73,85.39,307.49,81.43,310,80.35Z" style="fill:#263238"></path><polygon points="192.57 239.96 201.33 248.02 196.7 258.6 192.57 239.96" style="fill:#37474f"></polygon><polygon points="226.12 239.81 240.88 247.99 199.99 251.14 199.76 246.63 226.12 239.81" style="fill:#455a64"></polygon><path d="M255.9,227.63s6.42-2.87,7.23-7.74c2.54-15.19-27-37.17-31-32.7s3.6,25.87,3.6,25.87Zm-1.69-2.95-15.74-11.35s-6.88-18.49-3.71-22,27.06,15.46,25.07,27.28C259.2,222.44,254.21,224.68,254.21,224.68Z" style="fill:#455a64"></path><polygon points="239.31 261.23 266.93 232.85 220.43 196.59 202.87 214.95 239.31 261.23" style="fill:#37474f"></polygon><polygon points="220.43 196.59 220.2 190.71 197.3 213.73 202.87 214.95 220.43 196.59" style="fill:#455a64"></polygon><path d="M190.92,242.16s-5.63-2.48-5.66-.06S190.92,242.16,190.92,242.16Z" style="fill:#c7c7c7"></path><path d="M193.71,249.63s-6-1.5-5.58.89S193.71,249.63,193.71,249.63Z" style="fill:#c7c7c7"></path><path d="M184.77,248.57s-6.14.49-5,2.64S184.77,248.57,184.77,248.57Z" style="fill:#c7c7c7"></path><path d="M185,255.42s-6.07,1-4.76,3.05S185,255.42,185,255.42Z" style="fill:#c7c7c7"></path><path d="M179.62,245.49s-6.12-.62-5.4,1.69S179.62,245.49,179.62,245.49Z" style="fill:#c7c7c7"></path><path d="M176,253.22s-6,1.29-4.62,3.27S176,253.22,176,253.22Z" style="fill:#c7c7c7"></path><path d="M195.35,258.32s-4.86,3.77-2.74,4.95S195.35,258.32,195.35,258.32Z" style="fill:#c7c7c7"></path><path d="M189.07,273.59s-2.06,5.8.35,5.64S189.07,273.59,189.07,273.59Z" style="fill:#c7c7c7"></path><path d="M193.22,266.81s-3.14,5.29-.74,5.61S193.22,266.81,193.22,266.81Z" style="fill:#c7c7c7"></path><path d="M191.76,256.41s-5.78,2.11-4.12,3.87S191.76,256.41,191.76,256.41Z" style="fill:#c7c7c7"></path><path d="M187.36,264.52s-3.91,4.75-1.59,5.43S187.36,264.52,187.36,264.52Z" style="fill:#c7c7c7"></path><path d="M326.63,111.38c4.93,13.05.18,60.64-7.05,70.61-10.75,14.82-29.27,24-37.63,28.21-3.64,1.83-18.26-24.93-14.41-27C276,178.8,293,167.64,295,165s12.47-27.7,16.52-41.85C317,104.22,324.14,104.78,326.63,111.38Z" style="fill:#dd6a57"></path><path d="M238.2,203.13a4.5,4.5,0,0,0,3.71,3.55,6.68,6.68,0,0,0-.2,4.53c.93,2.58,5.4,2.25,5.4,2.25a8.24,8.24,0,0,0,.54,4.81c1.15,2.39,5.7,2.69,5.7,2.69a7.23,7.23,0,0,0,3.15,3.93c4.06,2.22,10.23-1.25,14.18-3.41s13.1-12,15-13.7L272,182.34s-20.45,4.68-24.72,7.89C243.71,192.93,237.62,199.67,238.2,203.13Z" style="fill:#dd6a57"></path><path d="M241.9,206.55c3.14-3.79,7.23-6.44,11.16-9.32.09-.07.19.07.1.14-3.95,2.82-7.28,6.38-11.1,9.35C242,206.81,241.81,206.65,241.9,206.55Z" style="fill:#263238"></path><path d="M247,213.37a13.25,13.25,0,0,1,2.67-2c1-.65,2-1.29,3-1.91,2-1.24,4.09-2.44,6.18-3.58.1,0,.2.08.1.14q-3,1.86-6,3.84l-2.94,2a15.26,15.26,0,0,1-2.84,1.79A.17.17,0,0,1,247,213.37Z" style="fill:#263238"></path><path d="M253.43,220.9a9.14,9.14,0,0,1,2.5-1.7c.94-.55,1.88-1.1,2.81-1.66,1.86-1.11,3.72-2.23,5.54-3.41.09-.06.19.08.1.14-1.85,1.21-3.68,2.44-5.53,3.63-.91.59-1.82,1.17-2.74,1.74a8.4,8.4,0,0,1-2.62,1.36A.06.06,0,0,1,253.43,220.9Z" style="fill:#263238"></path><path d="M301.17,151.72c-1.43,3.78-2.92,7.53-4.63,11.21-.22.45-.46.91-.71,1.35a4.83,4.83,0,0,1-.93,1.27,25.77,25.77,0,0,1-2.26,2.06c-1.57,1.3-3.21,2.49-4.87,3.66-3.31,2.33-6.74,4.47-10.18,6.59S270.66,182,267.15,184l0,0-.06,0-10.17,3-5.06,1.58c-.83.28-1.69.55-2.46.87a11,11,0,0,0-2.13,1.38,37.61,37.61,0,0,0-7.18,7.62,7.77,7.77,0,0,0-1.57,4.79,3.22,3.22,0,0,0,1.13,2.16,5.42,5.42,0,0,0,2.34,1.05l.13,0,0,.12a10.18,10.18,0,0,0-.49,2.73,3.92,3.92,0,0,0,.7,2.64,4.07,4.07,0,0,1-.84-2.64,9.87,9.87,0,0,1,.4-2.8l.09.16a5.77,5.77,0,0,1-2.5-1A3.6,3.6,0,0,1,238,203.4a6.12,6.12,0,0,1,.33-2.72,11,11,0,0,1,1.18-2.44,38.66,38.66,0,0,1,7.17-7.94,10.89,10.89,0,0,1,2.29-1.53c.86-.36,1.69-.62,2.54-.91l5.06-1.63,10.16-3.12-.1,0c7-3.95,14-8.07,20.68-12.53,1.67-1.12,3.32-2.27,4.9-3.51a26.45,26.45,0,0,0,2.26-2,9.52,9.52,0,0,0,1.6-2.45C298,159.13,299.54,155.41,301.17,151.72Z" style="fill:#263238"></path><path d="M312.18,117.55c7.94-17.26,16.81-14.09,17.73,2.87a292.11,292.11,0,0,1-.5,33.21l-29.67-8.12S307.09,128.6,312.18,117.55Z" style="fill:#FFC840"></path><path d="M315.4,129.67s1.88,1.29,1,2.32-1.95-.87-2-1.66c0,0-1.06,1.62-1.78.85s.59-1.54,1.15-1.69c0,0-1.53-1.17-.62-1.93s1.61.46,1.59,1.25a2.64,2.64,0,0,1,.63-.75c.47-.36,1.13-.55,1.55,0C317.53,128.92,316.19,129.78,315.4,129.67Zm6-12.83c-.12.7.48,1,1.07,1.11a2.5,2.5,0,0,0,1-.08c-.57.54-.86,1.91.24,2s.93-1.8.93-1.8c.49.29,2,.68,2-.39s-1.86-.66-1.86-.66c.55-.56,1.14-2.66-.22-2.56s-.93,2.35-.93,2.35C323.12,116.18,321.57,115.84,321.4,116.84Zm-18.19,25.44c-.12.7.48,1,1.07,1.11a2.5,2.5,0,0,0,1-.08c-.56.54-.86,1.91.24,2s.93-1.8.93-1.8c.5.29,2,.68,2-.39s-1.86-.66-1.86-.66c.55-.56,1.14-2.66-.21-2.56s-.94,2.35-.94,2.35C304.93,141.62,303.38,141.28,303.21,142.28Zm18.19,0c-.12.7.48,1,1.07,1.11a2.5,2.5,0,0,0,1-.08c-.57.54-.86,1.91.24,2s.93-1.8.93-1.8c.49.29,2,.68,2-.39s-1.86-.66-1.86-.66c.55-.56,1.14-2.66-.22-2.56s-.93,2.35-.93,2.35C323.12,141.62,321.57,141.28,321.4,142.28Z" style="fill:#fff"></path><path d="M311.42,119.42c-1.08,2.26-2.22,4.49-3.35,6.73.2-1.06.34-2.12.44-3.2a0,0,0,1,0-.07,0c-.16.84-.35,1.68-.49,2.52-.07.4-.14.81-.22,1.21,0,.09,0,.18-.05.26-.88,1.75-1.75,3.49-2.58,5.26-1,2.11-1.93,4.24-2.87,6.37s-1.82,4.73-2.89,6.89c-.09.19,2.63.74,2.9.82s.38-.17.11-.2-2.48-.89-2.51-.91c.94-2.14,2.11-4.18,3.12-6.3s2-4.2,3-6.33c1.94-4.32,3.65-8.74,5.57-13.08A0,0,0,0,0,311.42,119.42Z" style="fill:#263238"></path><path d="M331.92,129.39c-.27.88-.56,1.76-.78,2.66-.08.37-.17.74-.26,1.11.08-3.07.13-6.13.19-9.19,0,0-.06,0-.06,0-.36,5-.73,10-1,15a142.58,142.58,0,0,0-.49,14.46,17,17,0,0,0-2.71-.39,12.2,12.2,0,0,0,3.06.84,146.51,146.51,0,0,0,.85-15.11c0-1.38.08-2.76.11-4.14.16-.85.39-1.69.61-2.53s.38-1.81.56-2.72C332,129.36,331.93,129.34,331.92,129.39Z" style="fill:#263238"></path><path d="M328.13,149.16c-4.17-1.43-21.5-6.67-25.32-7.55-.26-.06-.37.09-.1.18,12.41,4.58,21.19,6.33,25.36,7.53C328.17,149.35,328.24,149.19,328.13,149.16Z" style="fill:#263238"></path></g></svg>